<svg id="Capa_1" data-name="Capa 1" xmlns="http://www.w3.org/2000/svg" viewBox="0 0 400 354.21"><defs><style>.cls-1{fill:#9bc43d;}.cls-2{fill:#fff;}.cls-3{fill:#74706f;}</style></defs><title>nwapp_sitioweb_aliteclogo</title><path class="cls-1" d="M176.1,79.24A2.94,2.94,0,1,0,175,77a2.9,2.9,0,0,0,.78,2l-.43-.39-16,17.25,1.54,8.56-2.12-2.7-1.88-6.92V73.4l11.79-9.24h16.27l5.69-13.84V30.16a3,3,0,1,0-1.14-.14V50.1L184.16,63h-3.27V59.58h-7.73l-7.6-9.77a2.9,2.9,0,0,0,.78-2,3,3,0,1,0-3,3,2.91,2.91,0,0,0,1.25-.29l8,10.24h7.14V63H168.25l-11,8.66-2.16-23.43v-.11L144.52,26.8a3.37,3.37,0,0,0,.48-.45,3,3,0,1,0-2.27,1.06H143a2.66,2.66,0,0,0,.49-.1l10.44,21.15,2.22,24.06-.43.33v22l2,7.36,3.6,4.59.14.78v32.74l2.86,1.22v28.71l-2.86,4.38v55.15a2.94,2.94,0,1,0,1.89-.7,2.67,2.67,0,0,0-.75.11V174.94l2.86-4.38v-29.8l-2.86-1.22v-32l-2-11.33L176.2,79.33ZM178,75.16a1.81,1.81,0,1,1-1.81,1.8A1.81,1.81,0,0,1,178,75.16Zm10.62-47.93A1.81,1.81,0,1,1,190.39,29,1.81,1.81,0,0,1,188.58,27.23Zm-27,20.6a1.81,1.81,0,1,1,1.8,1.81A1.81,1.81,0,0,1,161.59,47.83Zm-18.7-21.57a1.8,1.8,0,0,1-1.55-3,1.83,1.83,0,0,1,1.22-.65h.17a1.83,1.83,0,0,1,1.8,1.64,1.86,1.86,0,0,1-.41,1.32A1.84,1.84,0,0,1,142.89,26.26ZM165.14,232a1.81,1.81,0,1,1-1.81-1.81A1.81,1.81,0,0,1,165.14,232Z" transform="translate(0 -21.51)"/><path class="cls-1" d="M165.35,69.88h24.83a2.94,2.94,0,0,0,5.35-1.69,2.95,2.95,0,1,0-5.9,0,3.19,3.19,0,0,0,.06.54H165l-6.39,4.84v19l6.29-6V81.36a2.93,2.93,0,1,0-1.14-.19V86l-4,3.84V74.14Zm27.23-3.5a1.81,1.81,0,1,1-1.8,1.81A1.81,1.81,0,0,1,192.58,66.38ZM163,78.42a1.81,1.81,0,1,1,1.8,1.81A1.81,1.81,0,0,1,163,78.42Z" transform="translate(0 -21.51)"/><path class="cls-1" d="M179.22,92.66a3,3,0,1,0,.22,1.15l22-9.06h11.58a2.93,2.93,0,1,0-.75-1.94,2.68,2.68,0,0,0,.13.8H201.25Zm-2.73,2.93a1.81,1.81,0,1,1,1.81-1.81A1.81,1.81,0,0,1,176.49,95.59ZM215.25,81a1.81,1.81,0,1,1-1.8,1.8A1.81,1.81,0,0,1,215.25,81Z" transform="translate(0 -21.51)"/><path class="cls-1" d="M176.31,161.29V149.37h.18a3,3,0,1,0-1.32-.33v11.78l-4,4.21v10a3,3,0,1,0,1.15,0V165.5Zm.18-16.66a1.81,1.81,0,1,1-1.8,1.81A1.81,1.81,0,0,1,176.49,144.63Zm-2.83,33.25a1.81,1.81,0,1,1-1.81-1.8A1.81,1.81,0,0,1,173.66,177.88Z" transform="translate(0 -21.51)"/><path class="cls-1" d="M116.83,71.46v42.37l19.21,19h12.08l4.77,4.32a2.89,2.89,0,0,0-.81,2,2.95,2.95,0,1,0,2.95-3,3.44,3.44,0,0,0-.45.05V118.35l-6.79-17,0-.11-8.62-8.57V87.12a2.94,2.94,0,1,0-1.14,0v6l8.78,8.73,6.66,16.73v17.5l-4.87-4.42h-4.28V117.77L134,107.26v-8.6a2.92,2.92,0,1,0-1.15,0v9.07l10.3,10.51v13.41h-6.63L118,113.35V71.86l4.58-5.6v-23a3.43,3.43,0,0,0,.56.06,2.95,2.95,0,1,0-3-3,2.92,2.92,0,0,0,1.24,2.39V65.85Zm19.93,12.77a1.81,1.81,0,1,1,1.8,1.8A1.81,1.81,0,0,1,136.76,84.23Zm20.08,54.89a1.81,1.81,0,1,1-1.81-1.8A1.81,1.81,0,0,1,156.84,139.12Zm-25.2-43.35a1.81,1.81,0,1,1,1.81,1.8A1.81,1.81,0,0,1,131.64,95.77Zm-8.53-57.18a1.81,1.81,0,1,1-1.81,1.81A1.81,1.81,0,0,1,123.11,38.59Z" transform="translate(0 -21.51)"/><path class="cls-1" d="M131.13,61.64V34.89h0a3,3,0,1,0-1.17-.25V61.2l-9.15,10v40.2l5.15,5.19v.2h.2l8.8,8.88a2.94,2.94,0,1,0,2.76-1.92,3,3,0,0,0-2.14.92l-8.48-8.55V95.72l9.12-22.41a2.91,2.91,0,0,0,1.43.38,3,3,0,1,0-2.34-1.17l-8.21,20.17V78.78c.11,0,.21,0,.32,0a3,3,0,1,0-1.46-.4V115l-4-4V71.64ZM129.35,32a1.81,1.81,0,1,1,1.8,1.8A1.81,1.81,0,0,1,129.35,32Zm8.39,92.94a1.8,1.8,0,1,1-1.81,1.8A1.81,1.81,0,0,1,137.74,124.89Zm-.07-55.95a1.81,1.81,0,1,1-1.8,1.81A1.81,1.81,0,0,1,137.67,68.94Zm-10.23,5.12a1.81,1.81,0,1,1-1.81,1.81A1.81,1.81,0,0,1,127.44,74.06Z" transform="translate(0 -21.51)"/><path class="cls-1" d="M174.46,133.37l0-18.74L202.6,99.05h27.74a2.95,2.95,0,1,0-.48-1.61,3.73,3.73,0,0,0,0,.47H202.31l-28.95,16,0,18.27h-3.87V111.47l17.84-10.83a2.92,2.92,0,0,0,2.37,1.21,3,3,0,1,0-2.77-2l-.15-.25-18.44,11.2V171L166,174.8v8.25l5.14,5.39V234a3,3,0,0,0-1.27,2.43,2.95,2.95,0,1,0,3-2.95,3.07,3.07,0,0,0-.53.05V188l-5.15-5.39v-7.48l2.29-3.84V150.05l7.64-9.92a2.92,2.92,0,0,0,1.6.48,2.95,2.95,0,0,0,1.05-5.7V118l24-14.36h14.08a2.92,2.92,0,1,0-.37-1.39,2,2,0,0,0,0,.24h-14l-24.8,14.86v17.38a2.94,2.94,0,0,0-2.34,4.61l-6.81,8.85V133.37ZM232.8,95.63a1.81,1.81,0,1,1-1.8,1.81A1.81,1.81,0,0,1,232.8,95.63ZM189.66,97.1a1.81,1.81,0,1,1-1.81,1.8A1.81,1.81,0,0,1,189.66,97.1Zm-15,139.29a1.81,1.81,0,1,1-1.8-1.81A1.81,1.81,0,0,1,174.64,236.39Zm45.73-136a1.81,1.81,0,1,1-1.8,1.81A1.81,1.81,0,0,1,220.37,100.43Zm-41.68,35.43a1.8,1.8,0,1,1-1.81,1.8A1.8,1.8,0,0,1,178.69,135.86Z" transform="translate(0 -21.51)"/><path class="cls-1" d="M154.56,149.38a2.95,2.95,0,1,0-1.95-5.15L149,140.64a2.91,2.91,0,0,0,.44-1.52,3,3,0,1,0-1.21,2.37l3.66,3.66a2.91,2.91,0,0,0-.3,1.29A3,3,0,0,0,154.56,149.38Zm0-4.75a1.81,1.81,0,1,1-1.81,1.81A1.81,1.81,0,0,1,154.56,144.63Zm-8.05-3.7a1.81,1.81,0,1,1,1.81-1.81A1.81,1.81,0,0,1,146.51,140.93Z" transform="translate(0 -21.51)"/><path class="cls-1" d="M163.35,159.6a2.94,2.94,0,0,0-5.51-1.43l-43.1-42.37-.17-.16h-2.32v-45l5.15-5.39V57l-2.29-3.84V32.42a3,3,0,1,0-1.14,0v21l2.28,3.84v7.47l-5.14,5.39v45.49h-2.86V91.75l-1.51-3.94,1.26-25v-.1l-7.36-22.31a2.94,2.94,0,1,0-3.16-.79,3,3,0,0,0,2,1l7.35,22.29-1.12,22.28-6.12-16a2.94,2.94,0,1,0-1.19.25h.06L107.1,92v23.68h-2.76l-3-3.12V92.77L92.26,65.48A2.93,2.93,0,1,0,91,65.8l.21,0L93.92,74,77.4,67.63l-.1,0H72.77a2.95,2.95,0,1,0-.09,1.14h4.41l17.3,6.71L100.24,93v18.36l-12-12.66V91H80.51l-7.6-9.76a2.94,2.94,0,1,0-2.17,1A2.91,2.91,0,0,0,72,82l4.4,5.66H60.33l-.26-4.45-9.79-9.71A3,3,0,1,0,45.34,71,3,3,0,0,0,46,73.17a3,3,0,0,0,2,1h.27a3,3,0,0,0,1-.18L59,83.66l.3,5.09h18L80,92.19h7.13v5.72H75.55a2.5,2.5,0,0,0,0-.47,3,3,0,1,0-.49,1.61H87l16.82,17.73H114.1l43.38,42.64a1.1,1.1,0,0,0,0,.18,2.95,2.95,0,1,0,5.89,0ZM112.72,29.53a1.81,1.81,0,1,1,1.81,1.8A1.81,1.81,0,0,1,112.72,29.53Zm-14.85,8a1.81,1.81,0,0,1,1.8-1.72h.09a1.81,1.81,0,0,1-.08,3.61h-.09a1.77,1.77,0,0,1-1.25-.59A1.83,1.83,0,0,1,97.87,37.57ZM96.62,66.51a1.81,1.81,0,1,1,1.8,1.8A1.81,1.81,0,0,1,96.62,66.51Zm-7.47-3.66a1.81,1.81,0,1,1,1.8,1.8A1.81,1.81,0,0,1,89.15,62.85Zm-19.3,6.89a1.81,1.81,0,1,1,1.79-2v.33A1.8,1.8,0,0,1,69.85,69.74ZM48.11,73.08a1.83,1.83,0,0,1-1.22-.65,1.81,1.81,0,0,1,1.39-3h.16a1.82,1.82,0,0,1,1.64,2,1.86,1.86,0,0,1-.61,1.19l0,0-.24.24A1.84,1.84,0,0,1,48.11,73.08Zm20.83,6.21a1.81,1.81,0,1,1,1.8,1.8A1.81,1.81,0,0,1,68.94,79.29Zm3.71,19.95a1.81,1.81,0,1,1,1.8-1.8A1.81,1.81,0,0,1,72.65,99.24ZM158.6,159.6a1.81,1.81,0,1,1,1.81,1.8A1.81,1.81,0,0,1,158.6,159.6Z" transform="translate(0 -21.51)"/><path class="cls-1" d="M142.88,59.41a3,3,0,1,0-3.16,2.93l3.42,7.25V88.68l9,5.41,6.42,24.45v31.78a3,3,0,1,0,1.14,0V118.46l-6.58-25.11L144.28,88V69.34l-3.37-7.16A3,3,0,0,0,142.88,59.41Zm18.19,93.77a1.81,1.81,0,1,1-1.81-1.81A1.81,1.81,0,0,1,161.07,153.18Zm-21.14-92a1.81,1.81,0,1,1,1.8-1.81A1.81,1.81,0,0,1,139.93,61.22Z" transform="translate(0 -21.51)"/><path class="cls-1" d="M232.07,79.75a3,3,0,1,0-2.94-3H211.2V70.45h7.29l7.92-10.26a2.94,2.94,0,1,0-1.66-2.64,2.91,2.91,0,0,0,.75,1.94l-5.72,7.42V64.73h-7.73l-.88-1.14h0V56.72h7.29l7.92-10.26a2.83,2.83,0,0,0,1.29.32,3,3,0,1,0-2.2-1l-7.57,9.81h-7.87v6.59L204.46,55a2.92,2.92,0,0,0,.78-2,2.95,2.95,0,1,0-3,3,2.9,2.9,0,0,0,1.24-.29l8,10.23h7.15v2.29h.18l-.89,1.15h-7.87v7.43H205.4l-22.34,8.59a3,3,0,1,0-.1,1.27l22.65-8.71h23.73A2.93,2.93,0,0,0,232.07,79.75ZM227.7,42a1.81,1.81,0,1,1-1.8,1.81A1.81,1.81,0,0,1,227.7,42ZM200.48,53a1.81,1.81,0,1,1,1.81,1.8A1.81,1.81,0,0,1,200.48,53Zm27.22,2.77a1.81,1.81,0,1,1-1.8,1.8A1.81,1.81,0,0,1,227.7,55.75ZM180.15,87.54a1.81,1.81,0,1,1,1.81-1.8A1.81,1.81,0,0,1,180.15,87.54ZM232.07,75a1.81,1.81,0,1,1-1.8,1.8A1.81,1.81,0,0,1,232.07,75Z" transform="translate(0 -21.51)"/><path class="cls-1" d="M236,66.51a2.95,2.95,0,1,0,2.95-3A3,3,0,0,0,236,66.51Zm4.75,0a1.81,1.81,0,1,1-1.8-1.81A1.81,1.81,0,0,1,240.74,66.51Z" transform="translate(0 -21.51)"/><path class="cls-1" d="M145.44,315.76a2.93,2.93,0,1,0-.42-1.49,2.7,2.7,0,0,0,0,.41l-22.55,8.58H99a2.94,2.94,0,1,0,0,1.15h23.8Zm2.53-3.3a1.81,1.81,0,1,1-1.8,1.81A1.81,1.81,0,0,1,148,312.46ZM96.05,325.58a1.81,1.81,0,1,1,1.81-1.8A1.81,1.81,0,0,1,96.05,325.58Z" transform="translate(0 -21.51)"/><path class="cls-1" d="M115.7,316.4a3,3,0,1,0,.08,1.15h11.1l22.67-9.23a2.95,2.95,0,1,0-.87-2.09,2.84,2.84,0,0,0,.23,1.12l-22.26,9Zm-2.83,2.6a1.81,1.81,0,1,1,1.81-1.81A1.81,1.81,0,0,1,112.87,319Zm38.76-14.58a1.81,1.81,0,1,1-1.8,1.81A1.81,1.81,0,0,1,151.63,304.42Z" transform="translate(0 -21.51)"/><path class="cls-1" d="M138.43,332.42h24.8l5.07-6.06v-19l-5.72,6.18v5.24a2.95,2.95,0,1,0,1.15-.07V314l3.43-3.71V326l-4.46,5.32H138.44a3,3,0,1,0,0,1.15Zm26.71-10.84a1.81,1.81,0,1,1-1.81-1.8A1.81,1.81,0,0,1,165.14,321.58Zm-31.4,10.24a1.81,1.81,0,1,1,1.8,1.81A1.81,1.81,0,0,1,133.74,331.82Z" transform="translate(0 -21.51)"/><path class="cls-1" d="M97.61,303.25h27.63l28.91-15.94.34-23.62h-1.15L153,286.63,125,302.1H97.65a2.95,2.95,0,1,0,0,1.15Zm-4.67-.68a1.81,1.81,0,1,1,1.81,1.8A1.81,1.81,0,0,1,92.94,302.57Z" transform="translate(0 -21.51)"/><path class="cls-1" d="M165.6,293.1l-.16-.65V236.9h-4v53.35l-2.22,9.42a3,3,0,0,0-2.26,1.75l-9.34-1.82-10.08,7.65h-34.2a2.95,2.95,0,1,0,0,1.14h34.64l10-7.56,8.82,1.71v0a2.95,2.95,0,1,0,3.65-2.85l2.19-9.27V238h1.72v54.47L167,303.86l-15.42,16.58a2.94,2.94,0,0,0-4.31,2.61,3,3,0,0,0,5.9,0,2.91,2.91,0,0,0-.7-1.88L168,304.42l.21-.22-2.07-8.83,2.75,3,1.71,6.89V326.7L163,337H143.23l-6.32,12.55-.06.12V370a2.93,2.93,0,1,0,1.14-.13V349.93l5.95-11.79h19.68l8.12-11.07V305.19l-1.82-7.38Zm-65.16,16.39a1.81,1.81,0,1,1,1.8-1.8A1.81,1.81,0,0,1,100.44,309.49Zm61-6.92a1.81,1.81,0,1,1-1.81-1.81A1.81,1.81,0,0,1,161.48,302.57Zm-11.31,22.28a1.81,1.81,0,1,1,1.8-1.8A1.81,1.81,0,0,1,150.17,324.85Zm-10.63,47.92a1.81,1.81,0,1,1-1.8-1.8A1.81,1.81,0,0,1,139.54,372.77Z" transform="translate(0 -21.51)"/><path class="cls-1" d="M213,308.39H247.6a3,3,0,1,0,0-1.14h-34.2l-10.08-7.65-9.34,1.82a2.86,2.86,0,0,0-.77-1.05l3.35-6.43-4.4-3.51a2.91,2.91,0,0,0,.59-1.76,3,3,0,0,0-2.66-2.92v-26h-6.29v-8H182.6v9.15h6.3v24.95a2.94,2.94,0,1,0,2.35,5.33l3.82,3.05-2.9,5.54a3,3,0,0,0-.95-.17,2.95,2.95,0,1,0,2.95,2.95v0l8.83-1.71Zm37.49-2.51a1.81,1.81,0,1,1-1.8,1.81A1.81,1.81,0,0,1,250.45,305.88ZM188,288.67a1.81,1.81,0,1,1,1.81,1.81A1.81,1.81,0,0,1,188,288.67Zm3.27,15.7a1.81,1.81,0,1,1,1.8-1.8A1.81,1.81,0,0,1,191.22,304.37Z" transform="translate(0 -21.51)"/><path class="cls-1" d="M186.67,347.89h-.06v-10.2l-6.87-7.37V305.4l3.41-11.26,0-26.36h-5.72V254.63h-4v20.59h5.15v17.91l-4,9.33v-5.93l-6.3-5.73V250.05h2.86v34.36a3,3,0,1,0,1.15-.12V248.91h-5.15V291.3l6.29,5.73v57.69h.17a3,3,0,1,0,1.19-.25l-.21,0V305.36l5.14-12V274.08H174.6V255.77h1.71v13.16H182v25l-3.41,11.26,0,25.62,6.86,7.37v10a2.95,2.95,0,1,0,1.21-.26Zm-12.82-60.68a1.81,1.81,0,1,1-1.81-1.8A1.81,1.81,0,0,1,173.85,287.21Zm2.77,70.21a1.81,1.81,0,1,1-1.81-1.81A1.81,1.81,0,0,1,176.62,357.42Zm10-4.78a1.81,1.81,0,1,1,1.81-1.81A1.81,1.81,0,0,1,186.67,352.64Z" transform="translate(0 -21.51)"/><path class="cls-1" d="M215.35,330.59a3,3,0,0,0-2.95,3v0H188.16l-5.56-5.45V312.32l4,3.84V321a3,3,0,1,0,1.14-.15v-5.18l-6.29-6v18.95l6.23,6.11h25a2.95,2.95,0,1,0,2.7-4.11Zm-26-6.81a1.81,1.81,0,1,1-2.52-1.66h.9V322A1.81,1.81,0,0,1,189.37,323.78Zm26,11.56a1.81,1.81,0,1,1,1.81-1.8A1.81,1.81,0,0,1,215.35,335.34Z" transform="translate(0 -21.51)"/><path class="cls-1" d="M254.84,320.83a3,3,0,0,0-2.9,2.43H228.38l-22.55-8.58a2.85,2.85,0,0,0,0-.41,3,3,0,1,0-.42,1.49l22.72,8.65H252a2.95,2.95,0,1,0,2.88-3.58Zm-51.92-4.76a1.81,1.81,0,1,1,1.8-1.8A1.81,1.81,0,0,1,202.92,316.07Zm51.92,9.51a1.81,1.81,0,1,1,1.81-1.8A1.81,1.81,0,0,1,254.84,325.58Z" transform="translate(0 -21.51)"/><path class="cls-1" d="M199.26,309.17a2.9,2.9,0,0,0,2.08-.86l22.57,9.19.1.05h11.1a3,3,0,1,0,.09-1.15h-11L202,307.34a3,3,0,1,0-2.73,1.83ZM238,315.39a1.81,1.81,0,1,1-1.8,1.8A1.81,1.81,0,0,1,238,315.39Zm-38.76-11a1.81,1.81,0,1,1-1.8,1.81A1.81,1.81,0,0,1,199.26,304.42Z" transform="translate(0 -21.51)"/><path class="cls-1" d="M215.37,301.11a2.95,2.95,0,1,0-2.94,2.94A2.95,2.95,0,0,0,215.37,301.11Zm-4.75,0a1.81,1.81,0,1,1,1.81,1.8A1.81,1.81,0,0,1,210.62,301.11Z" transform="translate(0 -21.51)"/><path class="cls-1" d="M255.57,299.62a3,3,0,0,0-2.9,2.48h-27.3l-28.2-15.47L196.9,263h-1.14l.27,24.28L225,303.18l.13.07h27.63a2.95,2.95,0,1,0,2.86-3.63Zm0,4.75a1.81,1.81,0,1,1,1.81-1.8A1.81,1.81,0,0,1,255.57,304.37Z" transform="translate(0 -21.51)"/><path class="cls-1" d="M95.09,124.79v0l.06,0h20.47L126,135.19H110l-5.67-6.46L97,128.19a2.84,2.84,0,0,0-.68-1.47,3,3,0,1,0,.65,2.61l6.84.51,5.13,5.85-4.73,4.15-4.81-5.48-9.9.51a2.83,2.83,0,0,0-.54-.93,3,3,0,1,0-.27,4.16,2.9,2.9,0,0,0,1-2.09l9.23-.48,5.19,5.92,5.82-5.11h17.19l29.75,29.9V288.54L140.49,299a2.94,2.94,0,1,0,.92,2.14,2.89,2.89,0,0,0-.26-1.21L158,289.17V165.76L116.1,123.64h-9.57v-2.86H98.8L91.2,111A2.94,2.94,0,1,0,89,112a2.9,2.9,0,0,0,1.24-.29l8,10.24h7.15v1.71H95.48l-22.66-14.3H57.53l-13-13.13a3,3,0,1,0-.83.79l13.38,13.49H72.49l20.85,13.15H70.62L48,114.93a2.95,2.95,0,1,0,.09,1.26l22.34,8.6Zm.2,5.23a1.8,1.8,0,0,1-2.54-.16,1.8,1.8,0,1,1,2.71-2.38A1.79,1.79,0,0,1,95.29,130Zm-7.36,7.22a1.8,1.8,0,1,1-2.38-2.71,1.8,1.8,0,0,1,2.55.17A1.79,1.79,0,0,1,87.93,137.24Zm50.54,165.67a1.81,1.81,0,1,1,1.8-1.8A1.81,1.81,0,0,1,138.47,302.91ZM87.23,109A1.81,1.81,0,1,1,89,110.84,1.81,1.81,0,0,1,87.23,109ZM40.29,94.51a1.81,1.81,0,1,1,1.8,1.81A1.81,1.81,0,0,1,40.29,94.51Zm4.87,23.06A1.81,1.81,0,1,1,47,115.76,1.81,1.81,0,0,1,45.16,117.57Z" transform="translate(0 -21.51)"/><path class="cls-1" d="M115.83,157.39l.43.37,25.59,5,11.58,11.4V177l-19.63-4.69-1.54-2.85a2.92,2.92,0,0,0,.91-2.12,2.95,2.95,0,1,0-2.95,2.95,3,3,0,0,0,1.08-.21l1.73,3.22,20.4,4.87v2.51l-22-5.53L123,166.54H111.3a3,3,0,1,0,.1,1.15h11.1l8.33,8.52,22.6,5.68v8.68h1.15V165.76l-10.15-9.88-29.88-8.68-3.6-2.81a2.95,2.95,0,1,0-2.47,1.34,2.87,2.87,0,0,0,1.66-.52l3.88,3,29.82,8.67,9.59,9.34v6.34l-11-10.86-25.63-5-.52-.43h0L99.88,142.52H87.51L77.75,133a2.92,2.92,0,1,0-.81.81L87,143.66H99.46l15,12.59H85.37v-7.5l-7.25-5.52a3,3,0,0,0,.36-1.39,3,3,0,1,0-3,2.94,2.9,2.9,0,0,0,1.86-.67l6.83,5.21v8.07Zm12.58,10a1.81,1.81,0,1,1,1.81,1.81A1.81,1.81,0,0,1,128.41,167.37Zm-19.93,1.81a1.81,1.81,0,1,1,1.81-1.81A1.81,1.81,0,0,1,108.48,169.18Zm-1.8-26.4a1.81,1.81,0,1,1,1.8,1.8A1.81,1.81,0,0,1,106.68,142.78ZM73.5,131.34a1.81,1.81,0,1,1,1.81,1.8A1.8,1.8,0,0,1,73.5,131.34Zm2,12.3a1.81,1.81,0,1,1,1.81-1.8A1.81,1.81,0,0,1,75.53,143.64Z" transform="translate(0 -21.51)"/><path class="cls-1" d="M196.55,166h8.59l5.27-5.17a2.88,2.88,0,0,0,1.56.46,2.95,2.95,0,1,0-2.95-2.95,2.89,2.89,0,0,0,.56,1.71l-4.9,4.81H196.9v-6.29h7.29l6.15-7.78a2.84,2.84,0,0,0,1,.2,3,3,0,1,0-2-.82l-5.72,7.25h-7.88v7.75L190,171.67V161.56a3,3,0,1,0-1.14-.07V173l-.05.05.05,0v3.33a2.94,2.94,0,1,0,1.14-.07v-2.92ZM212,156.5a1.81,1.81,0,1,1-1.81,1.81A1.81,1.81,0,0,1,212,156.5Zm-.58-10.29a1.81,1.81,0,1,1-1.8,1.8A1.81,1.81,0,0,1,211.39,146.21Zm-23.56,12.44a1.81,1.81,0,1,1,1.81,1.8A1.81,1.81,0,0,1,187.83,158.65Zm3.61,20.59a1.81,1.81,0,1,1-1.8-1.81A1.81,1.81,0,0,1,191.44,179.24Z" transform="translate(0 -21.51)"/><path class="cls-1" d="M286,94.07a3,3,0,0,0-2.92,2.69h-12L265.6,91H261l-21.88,7.44h-.48v18.06l-5.36,5.36h0v0l-2.69,2.69a2.85,2.85,0,0,0-.88-.15,2.93,2.93,0,0,0-2.64,4.24L223.33,133l-30.72,7.08-9.43,9.75v-8.74l8.56-10.57h22.55a2.95,2.95,0,1,0-.09-1.15h-7.07l6-6.86h8.59l5.27-5.17a2.85,2.85,0,0,0,1.55.46,3,3,0,1,0-2.39-1.24l-4.89,4.81h-8.65l-7,8H191.19l-8,9.9v-10.2l17-6.56h4.4a3,3,0,1,0-.08-1.14h-4.54l-16.76,6.47v-2.45l22.65-12.73a2.94,2.94,0,1,0-.84-2.05,2.83,2.83,0,0,0,.22,1.09l-23.18,13v39.05l-5.64,6,.64,78.1-8.73-9V198.34a3,3,0,1,0-1.14-.06v41.08l12.58,13v12.58h5.72v32l-2.18,11.75,15.83,17.08a3.14,3.14,0,0,0-.19,1,3,3,0,1,0,3-2.95,2.91,2.91,0,0,0-2.13.92l-15.23-16.44,2.09-11.23V264.92h0v-1.14h-5.72v-11.9l-2.7-2.79-.65-78.85,1.63-1.74v24.93h1.15V167.27l2.28-2.45v28h.53l-.49,1.22,1.07.43,3.86-9.65h7.76l19.3-17.48v-4.45l6-6.1H244a3,3,0,1,0-.09-1.14h-15v-6.87h7.3l2.64-3.43h18.06l.3-5.09,9.62-9.63a3,3,0,0,0,1,.19h.28a2.95,2.95,0,1,0-3.21-2.66,3,3,0,0,0,.9,1.86l-9.75,9.75-.26,4.45H239.76l4.38-5.69a2.82,2.82,0,0,0,1.29.31,3,3,0,1,0-2.2-1l-7.57,9.81h-7.87v8h-7.68l-6.62,6.77v4.41l-18.6,16.84h-8.1l-3,7.61V156.65l14.4-7.27h4.66L213.06,142H226.3a2.95,2.95,0,1,0-.09-1.15H212.69l-10.25,7.44h-4.56l-14.13,7.13v-4.5l9.45-9.77,30.57-7,.18,0,3.82-4.39a2.9,2.9,0,0,0,1.93.74,2.94,2.94,0,0,0,1.92-5.17l2.2-2.2,24-2.21h.1L279,110.39a2.94,2.94,0,0,0,2.62,1.59h.27a3,3,0,0,0,2-1,2.95,2.95,0,1,0-5.2-1.65l-21.05,10.39-11.55,1.06v-6.23h7.3l7.91-10.26a2.83,2.83,0,0,0,1.29.32,3,3,0,1,0-2.2-1l-7.57,9.81H245v7.48l-9.87.91L239.8,117V99.46l21.41-7.27h3.9l5.48,5.72h12.66A2.94,2.94,0,1,0,286,94.07Zm-57.49,19a1.81,1.81,0,1,1-1.8,1.81A1.81,1.81,0,0,1,228.55,113ZM217.11,127.9a1.81,1.81,0,1,1-1.8,1.81A1.81,1.81,0,0,1,217.11,127.9Zm-9.72-8a1.81,1.81,0,1,1-1.81,1.8A1.81,1.81,0,0,1,207.39,119.9Zm.55-11.1a1.81,1.81,0,1,1-1.8,1.8A1.81,1.81,0,0,1,207.94,108.8Zm-41.87,86.63a1.81,1.81,0,1,1,1.81,1.81A1.81,1.81,0,0,1,166.07,195.43ZM201.87,325a1.81,1.81,0,1,1-1.81,1.81A1.81,1.81,0,0,1,201.87,325Zm45-170.77a1.81,1.81,0,1,1-1.81,1.8A1.81,1.81,0,0,1,246.86,154.22Zm20.87-28.11h.17a1.81,1.81,0,0,1,1.8,1.64,1.85,1.85,0,0,1-.41,1.32,1.81,1.81,0,1,1-1.56-3Zm-22.3,8a1.81,1.81,0,1,1-1.8,1.81A1.81,1.81,0,0,1,245.43,134.11Zm-16.31,5.23a1.81,1.81,0,1,1-1.8,1.81A1.81,1.81,0,0,1,229.12,139.34Zm.58-10.11a1.81,1.81,0,1,1,1.8-1.81A1.81,1.81,0,0,1,229.7,129.23Zm51.76-22h.17a1.79,1.79,0,0,1,1.79,1.64,1.76,1.76,0,0,1-.41,1.32,1.83,1.83,0,0,1-1.22.65,1.81,1.81,0,0,1-.33-3.6Zm-18.87-7.44a1.81,1.81,0,1,1-1.8,1.81A1.81,1.81,0,0,1,262.59,99.79Zm23.45-1A1.81,1.81,0,1,1,287.85,97,1.81,1.81,0,0,1,286,98.83Z" transform="translate(0 -21.51)"/><path class="cls-1" d="M255.65,80.69,264,72.17h11.1a2.93,2.93,0,1,0,.1-1.15H263.54l-8.48,8.64-16.26,4H236l4.34-8.89,14.29-3.2,1.65-3.07a2.88,2.88,0,0,0,.59.06,2.94,2.94,0,1,0-1.65-.5l-1.35,2.51-14.31,3.2-4.83,9.89H222.31L217,92.76H190.23L178,100l-6.65-1.93a2.91,2.91,0,0,0,.08-.66,3,3,0,1,0-3,3,2.92,2.92,0,0,0,2.39-1.24l7.29,2.12,12.42-7.37h26.77l.29.17.09-.17h7.5a2.95,2.95,0,1,0-.46-1.58,3.27,3.27,0,0,0,0,.44h-6.42l4.61-8h15.9ZM278,70.05a1.81,1.81,0,1,1-1.81,1.8A1.81,1.81,0,0,1,278,70.05Zm-21.17-6.29a1.81,1.81,0,1,1-1.8,1.8A1.81,1.81,0,0,1,256.87,63.76ZM168.45,99.24a1.81,1.81,0,1,1,1.8-1.8A1.8,1.8,0,0,1,168.45,99.24Zm59.24-8.73a1.81,1.81,0,1,1-1.81,1.81A1.81,1.81,0,0,1,227.69,90.51Z" transform="translate(0 -21.51)"/><rect class="cls-1" x="164.3" y="178.78" width="1.14" height="26.88"/><rect class="cls-1" x="174.02" y="183.35" width="1.14" height="26.88"/><rect class="cls-1" x="159.15" y="180.49" width="1.14" height="61.2"/><path class="cls-2" d="M187.69,184.51a19.77,19.77,0,1,1-19.77-19.77A19.77,19.77,0,0,1,187.69,184.51Z" transform="translate(0 -21.51)"/><path class="cls-1" d="M167.86,196.45a12,12,0,1,1,12-12A12,12,0,0,1,167.86,196.45Zm0-21.29a9.28,9.28,0,1,0,9.28,9.28A9.29,9.29,0,0,0,167.86,175.16Z" transform="translate(0 -21.51)"/><path class="cls-1" d="M167.86,201.89a17.45,17.45,0,1,1,17.44-17.45A17.47,17.47,0,0,1,167.86,201.89Zm0-32.17a14.72,14.72,0,1,0,14.72,14.72A14.74,14.74,0,0,0,167.86,169.72Z" transform="translate(0 -21.51)"/><path class="cls-2" d="M176.93,184.38a9.17,9.17,0,1,1-9.17-9.16A9.17,9.17,0,0,1,176.93,184.38Z" transform="translate(0 -21.51)"/><path class="cls-3" d="M3.66,190.58A12.09,12.09,0,0,0,0,199.42V263H16.26V242.56H49.59V263H65.85V186.91H12.51A12.12,12.12,0,0,0,3.66,190.58Zm45.93,37.17H21.77l-5.51,5.51V201.72H49.59Z" transform="translate(0 -21.51)"/><polygon class="cls-3" points="126.9 226.66 103.78 226.66 103.78 165.4 87.52 165.4 87.52 241.47 143.16 241.47 143.16 216.45 126.9 216.45 126.9 226.66"/><polygon class="cls-3" points="194.12 180.2 215.27 180.2 215.27 241.47 231.53 241.47 231.53 180.2 252.68 180.2 252.68 165.4 194.12 165.4 194.12 180.2"/><polygon class="cls-3" points="261.94 180.2 268.91 180.2 261.94 187.17 261.94 241.47 317.59 241.47 317.59 226.66 278.21 226.66 278.21 210.84 317.59 210.84 317.59 196.03 283.71 196.03 278.21 201.54 278.21 180.2 317.59 180.2 317.59 165.4 261.94 165.4 261.94 180.2"/><path class="cls-3" d="M400,211.93V199.42a12.5,12.5,0,0,0-12.51-12.51H346.65a12.51,12.51,0,0,0-12.5,12.51v51.05A12.51,12.51,0,0,0,346.65,263h40.84A12.5,12.5,0,0,0,400,250.47V238H383.74v10.22H350.41V201.72h33.33v10.21Z" transform="translate(0 -21.51)"/></svg>