<?xml version="1.0" encoding="utf-8"?>
<!-- Generator: Adobe Illustrator 17.0.0, SVG Export Plug-In . SVG Version: 6.00 Build 0)  -->
<!DOCTYPE svg PUBLIC "-//W3C//DTD SVG 1.1//EN" "http://www.w3.org/Graphics/SVG/1.1/DTD/svg11.dtd">
<svg version="1.1" id="Capa_1" xmlns="http://www.w3.org/2000/svg" xmlns:xlink="http://www.w3.org/1999/xlink" x="0px" y="0px"
	 width="402.699px" height="398.238px" viewBox="0 0 402.699 398.238" enable-background="new 0 0 402.699 398.238"
	 xml:space="preserve">
<g>
	<path id="XMLID_78_" fill="#FFFFFF" d="M167.975,361.856c0-4.521,0.896-8.828,2.488-12.786c0.522-1.298-0.271-2.725-1.635-3.04
		c-28.847-6.665-54.594-21.514-74.655-41.967c-1.283-1.308-3.438-0.705-3.892,1.069c-1.42,5.549-4.183,10.561-7.927,14.675
		c-0.861,0.946-0.877,2.397,0.046,3.282c22.684,21.766,51.208,37.488,82.959,44.539c1.531,0.34,2.937-0.938,2.781-2.498
		C168.032,364.052,167.975,362.961,167.975,361.856z"/>
	<circle id="XMLID_77_" fill="#FFFFFF" cx="202.576" cy="361.855" r="25.688"/>
	<path id="XMLID_75_" fill="#FFFFFF" d="M314.679,88.108c1.549-5.601,4.47-10.629,8.387-14.708c0.848-0.883,0.875-2.281-0.015-3.122
		c-22.777-21.53-51.319-37.011-83.038-43.854c-1.472-0.318-2.792,0.959-2.57,2.448c0.237,1.595,0.367,3.224,0.367,4.885
		c0,4.11-0.732,8.048-2.057,11.706c-0.423,1.167,0.336,2.415,1.545,2.692c28.417,6.51,53.832,20.976,73.793,40.905
		C312.27,90.237,314.235,89.714,314.679,88.108z"/>
	<circle id="XMLID_74_" fill="#FFFFFF" cx="203.209" cy="33.757" r="25.688"/>
	<circle id="XMLID_73_" fill="#FFFFFF" cx="347.991" cy="97.32" r="25.688"/>
	<path id="XMLID_72_" fill="#FFFFFF" d="M343.359,257.999c-0.815,1.869,0.517,3.961,2.555,3.959l1.728-0.002
		c4.833,0,9.432,1.008,13.612,2.81c1.374,0.592,2.981-0.084,3.55-1.468c8.393-20.419,13.04-42.758,13.04-66.166
		c0-23.493-4.683-45.907-13.134-66.385c-0.566-1.372-2.153-2.046-3.523-1.475c-3.081,1.284-6.364,2.003-9.685,2.281
		c-2.899,0.242-5.795-0.115-8.692-0.192c-0.505-0.014-1.386-0.312-1.513,0.443c-0.053,0.314,0.085,0.627,0.24,0.905
		c1.013,1.82,1.822,3.826,2.602,5.758c1.162,2.878,2.276,5.776,3.317,8.7c2.083,5.85,3.876,11.81,5.179,17.884
		c2.261,10.535,3.391,21.307,3.391,32.081C356.026,218.756,351.498,239.338,343.359,257.999z"/>
	<path id="XMLID_70_" fill="#FFFFFF" d="M56.784,261.956c1.808,0,3.578,0.154,5.308,0.434c1.37,0.222,2.408-1.144,1.835-2.408
		c-8.69-19.181-13.536-40.46-13.536-62.851c0-22.535,4.929-43.931,13.728-63.204c0.576-1.262-0.457-2.628-1.827-2.413
		c-1.673,0.262-3.384,0.406-5.13,0.406c-4.589,0-8.956-0.924-12.962-2.559c-0.895-0.365-1.924,0.022-2.296,0.915
		c-8.576,20.603-13.331,43.18-13.331,66.854c0,23.492,4.665,45.913,13.113,66.391c0.369,0.894,1.398,1.287,2.295,0.926
		C47.944,262.854,52.257,261.956,56.784,261.956z"/>
	<circle id="XMLID_69_" fill="#FFFFFF" cx="56.785" cy="296.557" r="25.688"/>
	<path id="XMLID_68_" fill="#FFFFFF" d="M170.327,306.171c-0.047-11.86-0.301-74.292-0.53-97.911
		c-0.02-2.069,2.747-2.763,3.705-0.93c12.126,23.188,47.671,90.576,52.516,99.76c0.341,0.646,1.006,1.041,1.737,1.042l114.793,0.043
		c1.088,0,1.971-0.882,1.971-1.97v-16.302c0-1.088-0.882-1.97-1.97-1.97H239.529c-0.731,0-1.403-0.405-1.743-1.053L160.72,140.419
		c-0.341-0.647-1.012-1.052-1.743-1.052h-6.897c-1.088,0-1.97,0.882-1.97,1.97l0.027,144.627c0,1.088-0.882,1.97-1.97,1.97h-17.985
		c-1.088,0-1.97-0.882-1.97-1.97V141.312c0-1.088-0.882-1.97-1.97-1.97h-16.259c-1.088,0-1.97,0.882-1.97,1.97v164.85
		c0,1.088,0.882,1.97,1.97,1.97h58.374C169.448,308.132,170.332,307.262,170.327,306.171z"/>
	<g id="XMLID_66_">
		<path id="XMLID_67_" fill="#FFFFFF" d="M316.426,315.878l-15.478-0.006c-1.137,0-2.232,0.39-3.124,1.096
			c-16.982,13.44-36.859,23.368-58.544,28.646c-2.803,0.682-4.4,3.615-3.565,6.376c0.945,3.126,1.462,6.434,1.462,9.865
			c0,0.023,0,0.046,0,0.069c-0.007,3.371,3.02,5.902,6.3,5.124c29.373-6.969,55.899-21.371,77.474-41.111
			c1.975-1.807,2.173-4.897,0.432-6.931c-0.355-0.415-0.7-0.839-1.036-1.27C319.416,316.535,317.946,315.879,316.426,315.878z"/>
	</g>
	<g id="XMLID_61_">
		<path id="XMLID_64_" fill="#FFFFFF" d="M233.924,88.655c0.048,12.04,0.298,73.566,0.525,97.413
			c0.021,2.169-2.878,2.903-3.883,0.98c-12.27-23.458-47.372-90.005-52.305-99.357c-0.357-0.677-1.058-1.097-1.823-1.098
			l-114.64-0.043c-1.141,0-2.066,0.924-2.066,2.065v16.111c0,1.14,0.925,2.065,2.065,2.065h102.868c0.767,0,1.47,0.425,1.827,1.103
			l77.012,146.36c0.357,0.679,1.061,1.103,1.827,1.103h6.745c1.14,0,2.065-0.925,2.065-2.065l-0.027-144.437
			c0-1.141,0.924-2.065,2.065-2.065h17.795c1.14,0,2.065,0.924,2.065,2.065v144.461c0,1.14,0.925,2.065,2.065,2.065h16.068
			c1.141,0,2.065-0.925,2.065-2.065V88.659c0-1.14-0.924-2.065-2.065-2.065h-58.183C234.846,86.594,233.92,87.511,233.924,88.655z"
			/>
		<g id="XMLID_62_">
			<path id="XMLID_63_" fill="#FFFFFF" d="M90.73,78.848l17.251,0.007c0.779,0,1.53-0.269,2.137-0.758
				c16.729-13.478,36.339-23.514,57.757-29.003c3.183-0.816,5.043-4.059,4.269-7.252c-0.629-2.593-0.965-5.299-0.965-8.083
				c0-0.027,0-0.055,0-0.082c0.01-3.966-3.569-6.99-7.417-6.035c-28.693,7.119-54.594,21.367-75.745,40.723
				c-2.292,2.097-2.647,5.549-0.801,8.047c0.218,0.295,0.431,0.594,0.641,0.895C88.516,78.254,89.574,78.847,90.73,78.848z"/>
		</g>
	</g>
	<circle id="XMLID_76_" fill="#FFFFFF" cx="57.162" cy="97.32" r="25.687"/>
	<circle id="XMLID_71_" fill="#FFFFFF" cx="347.643" cy="296.557" r="25.688"/>
</g>
</svg>
