<?xml version="1.0" encoding="utf-8"?>
<!-- Generator: Adobe Illustrator 17.0.0, SVG Export Plug-In . SVG Version: 6.00 Build 0)  -->
<!DOCTYPE svg PUBLIC "-//W3C//DTD SVG 1.1//EN" "http://www.w3.org/Graphics/SVG/1.1/DTD/svg11.dtd">
<svg version="1.1" id="Layer_1" xmlns="http://www.w3.org/2000/svg" xmlns:xlink="http://www.w3.org/1999/xlink" x="0px" y="0px"
	 width="136.486px" height="122.973px" viewBox="0 0 136.486 122.973" enable-background="new 0 0 136.486 122.973"
	 xml:space="preserve">
<path fill="#EE7F22" d="M116.039,93.028c0,4.651-3.77,8.422-8.422,8.422H37.839c-4.651,0-8.422-3.77-8.422-8.422V23.249
	c0-4.651,3.77-8.422,8.422-8.422h69.779c4.651,0,8.422,3.77,8.422,8.422V93.028z"/>
<g>
	<g>
		<path fill="#BFBFBF" stroke="#BFBFBF" stroke-width="0.25" stroke-miterlimit="10" d="M89.888,70.774
			c1.924,0,3.706,0.601,5.182,1.618V52.691c-1.764,1.747-4.187,2.831-6.86,2.831c-2.539,0-4.99-0.487-6.727-2.082l0.157,8.924
			l-17.362-30.26H50.971v15.386c1.751-1.666,4.104-2.705,6.707-2.705c5.379,0,9.757,4.375,9.757,9.755c0,1.95-0.19,3.304-1.18,4.83
			c1.49,2.176,2.784,3.755,4.274,5.93c2.551,3.724,4.874,7.817,7.426,11.54c0.441,0.643,0.896,1.12,1.336,1.763
			c0.372,0.544-0.617-1.184-0.107-0.801c-0.005-0.446,1.282,2.898,1.282,2.458C80.467,75.208,84.835,70.774,89.888,70.774z"/>
		<path fill="#BFBFBF" stroke="#BFBFBF" stroke-width="0.25" stroke-miterlimit="10" d="M95.069,38.843v-6.738H81.639v6.5
			c1.737-1.594,4.032-2.592,6.57-2.592C90.882,36.012,93.305,37.095,95.069,38.843z"/>
		<path fill="#BFBFBF" stroke="#BFBFBF" stroke-width="0.25" stroke-miterlimit="10" d="M50.971,61.591v21.373h13.399V61.603
			c-1.75,1.658-4.098,2.692-6.693,2.692C55.076,64.296,52.722,63.257,50.971,61.591z"/>
		<path fill="#BFBFBF" stroke="#BFBFBF" stroke-width="0.25" stroke-miterlimit="10" d="M88.209,40.761
			c-2.759,0-5.006,2.247-5.006,5.006c0,2.759,2.247,5.006,5.006,5.006c2.761,0,5.008-2.247,5.008-5.006
			C93.217,43.007,90.97,40.761,88.209,40.761z"/>
		<path fill="#BFBFBF" stroke="#BFBFBF" stroke-width="0.25" stroke-miterlimit="10" d="M94.664,77.686
			c-0.783-1.921-2.665-3.281-4.865-3.281c-2.9,0-5.257,2.358-5.257,5.257c0,1.049,0.316,2.022,0.847,2.843
			c0.937,1.45,2.559,2.416,4.41,2.416c1.851,0,3.473-0.967,4.41-2.416c0.177-0.273,0.331-0.562,0.455-0.866
			c0.249-0.611,0.392-1.277,0.392-1.977S94.913,78.298,94.664,77.686z"/>
		<path fill="#BFBFBF" stroke="#BFBFBF" stroke-width="0.25" stroke-miterlimit="10" d="M57.678,59.547
			c2.761,0,5.008-2.247,5.008-5.006s-2.247-5.006-5.008-5.006c-2.759,0-5.006,2.247-5.006,5.006S54.919,59.547,57.678,59.547z"/>
	</g>
	<g>
		<path fill="#FFFFFF" d="M89.303,70.024c1.924,0,3.706,0.601,5.182,1.618V51.941c-1.764,1.747-4.187,2.831-6.86,2.831
			c-2.539,0-4.833-0.998-6.57-2.592v9.435l-17.362-30.26H50.387V46.74c1.751-1.666,4.104-2.705,6.707-2.705
			c5.379,0,9.757,4.375,9.757,9.755c0,1.95-0.589,3.759-1.579,5.284L80.397,81.25c-0.154-0.666-0.255-1.352-0.255-2.064
			C80.142,74.133,84.251,70.024,89.303,70.024z"/>
		<path fill="#FFFFFF" d="M94.485,38.092v-6.738H81.054v6.5c1.737-1.594,4.032-2.592,6.57-2.592
			C90.298,35.261,92.721,36.345,94.485,38.092z"/>
		<path fill="#FFFFFF" d="M50.387,60.841v21.373h13.399V60.853c-1.75,1.658-4.098,2.692-6.693,2.692
			C54.492,63.546,52.138,62.507,50.387,60.841z"/>
		<path fill="#FFFFFF" d="M87.625,40.01c-2.759,0-5.006,2.247-5.006,5.006c0,2.759,2.247,5.006,5.006,5.006
			c2.761,0,5.008-2.247,5.008-5.006C92.633,42.257,90.386,40.01,87.625,40.01z"/>
		<path fill="#FFFFFF" d="M94.08,76.936c-0.783-1.921-2.665-3.281-4.865-3.281c-2.9,0-5.257,2.358-5.257,5.257
			c0,1.049,0.316,2.022,0.847,2.843c0.937,1.45,2.559,2.416,4.41,2.416c1.851,0,3.473-0.967,4.41-2.416
			c0.177-0.273,0.331-0.562,0.455-0.866c0.249-0.611,0.392-1.277,0.392-1.977S94.329,77.547,94.08,76.936z"/>
		<path fill="#FFFFFF" d="M57.094,58.797c2.761,0,5.008-2.247,5.008-5.006s-2.247-5.006-5.008-5.006
			c-2.759,0-5.006,2.247-5.006,5.006S54.334,58.797,57.094,58.797z"/>
	</g>
</g>
</svg>
