<?xml version="1.0" encoding="utf-8"?>
<!-- Generator: Adobe Illustrator 17.0.0, SVG Export Plug-In . SVG Version: 6.00 Build 0)  -->
<!DOCTYPE svg PUBLIC "-//W3C//DTD SVG 1.1//EN" "http://www.w3.org/Graphics/SVG/1.1/DTD/svg11.dtd">
<svg version="1.1" id="Capa_1" xmlns="http://www.w3.org/2000/svg" xmlns:xlink="http://www.w3.org/1999/xlink" x="0px" y="0px"
	 width="418px" height="160px" viewBox="0 0 418 160" enable-background="new 0 0 418 160" xml:space="preserve">
<g>
	<path id="XMLID_59_" fill="#004F9F" d="M55.87,137.437c0-1.562,0.309-3.051,0.86-4.418c0.18-0.449-0.094-0.942-0.565-1.051
		c-9.969-2.303-18.866-7.435-25.799-14.503c-0.443-0.452-1.188-0.244-1.345,0.37c-0.491,1.918-1.445,3.65-2.739,5.071
		c-0.297,0.327-0.303,0.828,0.016,1.134c7.839,7.522,17.696,12.955,28.668,15.391c0.529,0.117,1.015-0.324,0.961-0.863
		C55.89,138.196,55.87,137.819,55.87,137.437z"/>
	<circle id="XMLID_58_" fill="#004F9F" cx="67.827" cy="137.437" r="8.877"/>
	<circle id="XMLID_57_" fill="#FFFFFF" cx="17.576" cy="46.022" r="8.877"/>
	<path id="XMLID_56_" fill="#004F9F" d="M106.566,42.838c0.535-1.935,1.545-3.673,2.898-5.083c0.293-0.305,0.302-0.788-0.005-1.079
		c-7.871-7.44-17.734-12.79-28.695-15.155c-0.509-0.11-0.965,0.331-0.888,0.846c0.082,0.551,0.127,1.114,0.127,1.688
		c0,1.42-0.253,2.781-0.711,4.045c-0.146,0.403,0.116,0.834,0.534,0.93c9.82,2.25,18.603,7.249,25.501,14.136
		C105.734,43.574,106.413,43.393,106.566,42.838z"/>
	<circle id="XMLID_55_" fill="#004F9F" cx="68.045" cy="24.056" r="8.877"/>
	<circle id="XMLID_54_" fill="#004F9F" cx="118.078" cy="46.022" r="8.877"/>
	<path id="XMLID_53_" fill="#004F9F" d="M116.477,101.547c-0.282,0.646,0.178,1.369,0.883,1.368l0.597-0.001
		c1.67,0,3.259,0.348,4.704,0.971c0.475,0.205,1.03-0.029,1.227-0.507c2.9-7.056,4.506-14.776,4.506-22.865
		c0-8.118-1.618-15.864-4.539-22.941c-0.196-0.474-0.744-0.707-1.217-0.51c-1.065,0.444-2.199,0.692-3.347,0.788
		c-1.002,0.084-2.002-0.04-3.004-0.066c-0.175-0.005-0.479-0.108-0.523,0.153c-0.018,0.108,0.029,0.217,0.083,0.313
		c0.35,0.629,0.63,1.322,0.899,1.99c0.402,0.995,0.786,1.996,1.146,3.006c0.72,2.022,1.339,4.081,1.79,6.18
		c0.781,3.64,1.172,7.363,1.172,11.086C120.855,87.986,119.29,95.099,116.477,101.547z"/>
	<circle id="XMLID_52_" fill="#FFFFFF" cx="117.958" cy="114.872" r="8.877"/>
	<path id="XMLID_51_" fill="#004F9F" d="M17.446,102.915c0.625,0,1.237,0.053,1.834,0.15c0.474,0.077,0.832-0.395,0.634-0.832
		c-3.003-6.628-4.678-13.982-4.678-21.719c0-7.787,1.703-15.181,4.744-21.841c0.199-0.436-0.158-0.908-0.631-0.834
		c-0.578,0.091-1.169,0.14-1.773,0.14c-1.586,0-3.095-0.319-4.479-0.884c-0.309-0.126-0.665,0.008-0.793,0.316
		C9.34,64.53,7.696,72.332,7.696,80.513c0,8.118,1.612,15.866,4.531,22.943c0.128,0.309,0.483,0.445,0.793,0.32
		C14.391,103.225,15.881,102.915,17.446,102.915z"/>
	<circle id="XMLID_50_" fill="#004F9F" cx="17.446" cy="114.872" r="8.877"/>
	<path id="XMLID_49_" fill="#F39200" d="M56.683,118.194c-0.016-4.098-0.104-25.673-0.183-33.835
		c-0.007-0.715,0.949-0.955,1.281-0.321c4.19,8.013,16.474,31.3,18.148,34.474c0.118,0.223,0.348,0.36,0.6,0.36l39.669,0.015
		c0.376,0,0.681-0.305,0.681-0.681v-5.633c0-0.376-0.305-0.681-0.681-0.681H80.597c-0.253,0-0.485-0.14-0.602-0.364L53.363,60.915
		c-0.118-0.224-0.35-0.364-0.602-0.364h-2.383c-0.376,0-0.681,0.305-0.681,0.681l0.009,49.979c0,0.376-0.305,0.681-0.681,0.681
		H42.81c-0.376,0-0.681-0.305-0.681-0.681V61.224c0-0.376-0.305-0.681-0.681-0.681H35.83c-0.376,0-0.681,0.305-0.681,0.681v56.967
		c0,0.376,0.305,0.681,0.681,0.681h20.172C56.379,118.872,56.684,118.571,56.683,118.194z"/>
	<g id="XMLID_47_">
		<path id="XMLID_48_" fill="#004F9F" d="M107.17,121.549l-5.349-0.002c-0.393,0-0.771,0.135-1.079,0.379
			c-5.868,4.644-12.737,8.075-20.231,9.899c-0.969,0.236-1.521,1.249-1.232,2.203c0.327,1.08,0.505,2.223,0.505,3.409
			c0,0.008,0,0.016,0,0.024c-0.002,1.165,1.044,2.04,2.177,1.771c10.15-2.408,19.317-7.385,26.773-14.207
			c0.683-0.625,0.751-1.692,0.149-2.395c-0.123-0.144-0.242-0.29-0.358-0.439C108.203,121.776,107.695,121.549,107.17,121.549z"/>
	</g>
	<circle id="XMLID_46_" fill="#004F9F" cx="117.958" cy="114.872" r="8.877"/>
	<g id="XMLID_42_">
		<path id="XMLID_45_" fill="#F39200" d="M78.66,43.027c0.016,4.161,0.103,25.422,0.182,33.663c0.007,0.75-0.994,1.003-1.342,0.339
			c-4.24-8.106-16.37-31.103-18.075-34.335c-0.123-0.234-0.366-0.379-0.63-0.379L19.178,42.3c-0.394,0-0.714,0.319-0.714,0.714
			v5.568c0,0.394,0.32,0.714,0.714,0.714h35.548c0.265,0,0.508,0.147,0.632,0.381l26.613,50.578
			c0.123,0.235,0.367,0.381,0.631,0.381h2.331c0.394,0,0.714-0.32,0.714-0.714l-0.009-49.913c0-0.394,0.319-0.714,0.714-0.714H92.5
			c0.394,0,0.714,0.319,0.714,0.714V99.93c0,0.394,0.319,0.714,0.714,0.714h5.553c0.394,0,0.714-0.32,0.714-0.714V43.029
			c0-0.394-0.319-0.714-0.714-0.714H79.373C78.978,42.315,78.658,42.632,78.66,43.027z"/>
		<g id="XMLID_43_">
			<path id="XMLID_44_" fill="#004F9F" d="M29.176,39.638l5.961,0.002c0.269,0,0.529-0.093,0.739-0.262
				c5.781-4.658,12.558-8.126,19.959-10.023c1.1-0.282,1.743-1.403,1.475-2.506c-0.217-0.896-0.333-1.831-0.333-2.793
				c0-0.009,0-0.019,0-0.028c0.003-1.37-1.233-2.416-2.563-2.086c-9.915,2.46-18.866,7.384-26.175,14.073
				c-0.792,0.725-0.915,1.918-0.277,2.781c0.075,0.102,0.149,0.205,0.221,0.309C28.411,39.433,28.777,39.638,29.176,39.638z"/>
		</g>
	</g>
	<circle id="XMLID_41_" fill="#004F9F" cx="17.576" cy="46.022" r="8.877"/>
</g>
<g>
	<path fill="#F39200" d="M141.485,71.796h4.813l8.724,15.322V71.796h4.278V93.77h-4.591l-8.946-15.592V93.77h-4.278V71.796z"/>
	<path fill="#F39200" d="M179.858,75.686H168.23v4.667h10.674v3.816H168.23v5.65h12.165v3.95h-16.652V71.796h16.115V75.686z"/>
	<path fill="#F39200" d="M199.94,71.796v3.891h-6.574V93.77h-4.621V75.686h-6.604v-3.891H199.94z"/>
	<path fill="#F39200" d="M205.612,71.796l2.901,12.584l0.632,3.502l0.634-3.431l2.482-12.655h4.845l2.611,12.582l0.669,3.504
		l0.678-3.367l2.93-12.719h4.676l-6.183,21.975h-4.396l-2.653-12.851l-0.775-4.249l-0.775,4.249l-2.653,12.851h-4.265l-6.231-21.975
		H205.612z"/>
	<path fill="#F39200" d="M248.361,91.817c-1.659,1.71-4.06,2.564-7.2,2.564s-5.541-0.854-7.201-2.564
		c-2.226-2.097-3.339-5.118-3.339-9.064c0-4.024,1.113-7.046,3.339-9.063c1.66-1.71,4.061-2.564,7.201-2.564s5.541,0.854,7.2,2.564
		c2.217,2.018,3.325,5.039,3.325,9.063C251.686,86.699,250.578,89.72,248.361,91.817z M245.492,88.478
		c1.068-1.342,1.603-3.25,1.603-5.726c0-2.464-0.534-4.37-1.603-5.717c-1.069-1.347-2.513-2.021-4.331-2.021
		c-1.819,0-3.271,0.671-4.354,2.013s-1.625,3.25-1.625,5.725c0,2.476,0.542,4.384,1.625,5.726s2.534,2.012,4.354,2.012
		C242.979,90.49,244.423,89.82,245.492,88.478z"/>
	<path fill="#F39200" d="M269.272,72.362c0.809,0.348,1.494,0.86,2.057,1.536c0.465,0.557,0.834,1.173,1.104,1.848
		c0.271,0.677,0.407,1.446,0.407,2.312c0,1.043-0.263,2.069-0.79,3.078c-0.526,1.009-1.396,1.722-2.608,2.14
		c1.014,0.407,1.731,0.986,2.154,1.736c0.422,0.751,0.633,1.896,0.633,3.437v1.476c0,1.004,0.041,1.685,0.121,2.043
		c0.122,0.566,0.404,0.983,0.849,1.252v0.552h-5.069c-0.139-0.487-0.238-0.88-0.298-1.178c-0.119-0.616-0.184-1.247-0.193-1.894
		l-0.03-2.042c-0.019-1.401-0.261-2.336-0.727-2.803c-0.465-0.467-1.337-0.701-2.615-0.701h-4.485v8.617h-4.487V71.796h10.511
		C267.306,71.826,268.463,72.014,269.272,72.362z M259.781,75.612v5.903h4.942c0.981,0,1.717-0.119,2.208-0.357
		c0.869-0.417,1.303-1.242,1.303-2.475c0-1.332-0.42-2.227-1.26-2.684c-0.473-0.259-1.18-0.388-2.124-0.388H259.781z"/>
	<path fill="#F39200" d="M277.313,71.796h4.517v9.054l8.49-9.054h5.934l-9.018,9.038l9.479,12.937h-5.903l-6.771-9.592l-2.212,2.242
		v7.35h-4.517V71.796z"/>
	<path fill="#F39200" d="M303.476,93.77h-4.562V71.796h4.562V93.77z"/>
	<path fill="#F39200" d="M307.696,71.796h4.813l8.724,15.322V71.796h4.278V93.77h-4.591l-8.946-15.592V93.77h-4.278V71.796z"/>
	<path fill="#F39200" d="M344.593,78.653c-0.348-1.5-1.197-2.549-2.549-3.146c-0.756-0.328-1.596-0.492-2.52-0.492
		c-1.77,0-3.223,0.668-4.361,2.002c-1.138,1.334-1.707,3.34-1.707,6.019c0,2.698,0.616,4.607,1.849,5.729s2.634,1.682,4.204,1.682
		c1.541,0,2.803-0.442,3.787-1.326c0.983-0.884,1.59-2.042,1.818-3.475h-5.083v-3.667h9.153V93.77h-3.041l-0.463-2.743
		c-0.885,1.039-1.68,1.771-2.385,2.196c-1.213,0.742-2.703,1.113-4.473,1.113c-2.912,0-5.298-1.008-7.156-3.024
		c-1.938-2.026-2.906-4.797-2.906-8.313c0-3.556,0.979-6.406,2.937-8.552s4.547-3.218,7.768-3.218c2.792,0,5.036,0.708,6.73,2.124
		c1.694,1.417,2.666,3.184,2.915,5.3H344.593z"/>
	<path fill="#004F9F" d="M359.852,71.796h5.195l7.774,21.975h-4.979l-1.45-4.518H358.3l-1.489,4.518h-4.803L359.852,71.796z
		 M359.549,85.466h5.628l-2.775-8.646L359.549,85.466z"/>
	<path fill="#004F9F" d="M388.94,79.264c1.325,1.401,1.988,3.459,1.988,6.172c0,2.862-0.648,5.044-1.943,6.545
		c-1.296,1.501-2.964,2.251-5.004,2.251c-1.301,0-2.381-0.323-3.241-0.969c-0.471-0.357-0.931-0.88-1.381-1.565v8.468h-4.204V77.52
		h4.07v2.4c0.46-0.706,0.95-1.262,1.47-1.67c0.95-0.726,2.081-1.088,3.392-1.088C385.997,77.163,387.615,77.863,388.94,79.264z
		 M385.679,82.321c-0.578-0.964-1.514-1.446-2.81-1.446c-1.556,0-2.625,0.73-3.208,2.191c-0.301,0.775-0.451,1.759-0.451,2.952
		c0,1.888,0.506,3.215,1.52,3.98c0.603,0.447,1.315,0.671,2.139,0.671c1.195,0,2.106-0.457,2.734-1.372
		c0.628-0.914,0.941-2.132,0.941-3.652C386.545,84.393,386.257,83.285,385.679,82.321z"/>
	<path fill="#004F9F" d="M407.59,79.264c1.325,1.401,1.988,3.459,1.988,6.172c0,2.862-0.648,5.044-1.943,6.545
		c-1.296,1.501-2.964,2.251-5.004,2.251c-1.301,0-2.381-0.323-3.241-0.969c-0.471-0.357-0.931-0.88-1.381-1.565v8.468h-4.204V77.52
		h4.07v2.4c0.46-0.706,0.95-1.262,1.47-1.67c0.95-0.726,2.081-1.088,3.392-1.088C404.647,77.163,406.265,77.863,407.59,79.264z
		 M404.33,82.321c-0.578-0.964-1.514-1.446-2.81-1.446c-1.556,0-2.625,0.73-3.208,2.191c-0.301,0.775-0.451,1.759-0.451,2.952
		c0,1.888,0.506,3.215,1.52,3.98c0.603,0.447,1.315,0.671,2.139,0.671c1.195,0,2.106-0.457,2.734-1.372
		c0.628-0.914,0.941-2.132,0.941-3.652C405.195,84.393,404.907,83.285,404.33,82.321z"/>
</g>
</svg>
