<svg id="Capa_1" data-name="Capa 1" xmlns="http://www.w3.org/2000/svg" viewBox="0 0 417.61 128.27"><defs><style>.cls-1{fill:#c08000;}.cls-2{fill:#004f80;}</style></defs><title>nwapp_sitioweb_logo1</title><path class="cls-1" d="M148.69,69.75h5.07l10.56,16.09a43.75,43.75,0,0,1,2.32,4.32h.07s-.27-2.67-.27-4.32V69.75h5V97.62h-5L155.88,81.57a42.59,42.59,0,0,1-2.32-4.32h-.08s.28,2.67.28,4.32V97.62h-5.07Z" transform="translate(0 -16)"/><path class="cls-1" d="M185.06,77.13c5.77,0,8.87,4.2,8.87,9.5,0,.59-.11,1.92-.11,1.92H180a5.69,5.69,0,0,0,6,5.3,9.9,9.9,0,0,0,5.77-2.19l1.93,3.57a12.52,12.52,0,0,1-8,2.86c-6.64,0-10.76-4.79-10.76-10.48C174.89,81.45,179.09,77.13,185.06,77.13Zm3.85,8c-.08-2.71-1.77-4.16-4-4.16a4.66,4.66,0,0,0-4.79,4.16Z" transform="translate(0 -16)"/><path class="cls-1" d="M197.29,81.88H194.7v-4h2.71V72.14h4.87v5.77h4.55v4h-4.55v7.77c0,3.3,2.59,3.77,4,3.77a4.45,4.45,0,0,0,.9-.08V97.7a8.46,8.46,0,0,1-1.53.12c-2.78,0-8.32-.82-8.32-7.54Z" transform="translate(0 -16)"/><path class="cls-1" d="M207.85,77.6h5.26l3.5,13.15a18,18,0,0,1,.39,2.12h.08s.19-1.06.47-2.12l3.69-13.11h4.43l3.7,13.11c.27,1.06.43,2.12.43,2.12h.08a21,21,0,0,1,.43-2.12L233.8,77.6H239l-6.08,20h-5.54L224,86.2a20.84,20.84,0,0,1-.51-2.16h-.08a18.09,18.09,0,0,1-.47,2.16l-3.38,11.42H214Z" transform="translate(0 -16)"/><path class="cls-1" d="M249.94,77.13c6.12,0,11,4.36,11,10.48s-4.91,10.48-11,10.48-11-4.31-11-10.48S243.85,77.13,249.94,77.13Zm0,16.72a6.25,6.25,0,1,0-6-6.24A6,6,0,0,0,250,93.85Z" transform="translate(0 -16)"/><path class="cls-1" d="M263.6,77.6h4.79v3.45a13.5,13.5,0,0,1-.08,1.42h.08a6.88,6.88,0,0,1,6.36-5.14,6.33,6.33,0,0,1,.9.07v4.91a8.45,8.45,0,0,0-1.18-.08,5.67,5.67,0,0,0-5.45,4.2,10.59,10.59,0,0,0-.43,3.26v7.93h-5Z" transform="translate(0 -16)"/><path class="cls-1" d="M277.25,69.75h5V84.67h2.47l4.83-7.07h5.54l-6.32,9v.08l7.1,11h-5.73l-5.3-8.75h-2.59v8.75h-5Z" transform="translate(0 -16)"/><path class="cls-1" d="M297.33,69.75h4.95v4.43h-4.95Zm0,7.85h5v20h-5Z" transform="translate(0 -16)"/><path class="cls-1" d="M306.2,77.6H311v2.32a12.19,12.19,0,0,1-.08,1.37H311a7.75,7.75,0,0,1,7.1-4.16c4.44,0,7,2.32,7,7.62V97.62h-5V85.77c0-2.44-.62-4.09-3.17-4.09a5.52,5.52,0,0,0-5.38,4.09,8.26,8.26,0,0,0-.36,2.67v9.18h-5Z" transform="translate(0 -16)"/><path class="cls-1" d="M336.51,101.63c3.06,0,5.65-1.3,5.65-4.87V95.58a9.49,9.49,0,0,1,.08-1.06h-.08a6.09,6.09,0,0,1-5.57,2.71c-5.73,0-9-4.63-9-10.13s3.1-10,8.87-10c4.36,0,5.93,2.55,5.93,2.55h.12a3.55,3.55,0,0,1,0-.55V77.6h4.67V96.41c0,6.87-5.34,9.46-10.56,9.46a16,16,0,0,1-7.11-1.73l1.49-3.81A13.47,13.47,0,0,0,336.51,101.63Zm5.77-14.49c0-4.55-2.24-5.77-4.95-5.77-3,0-4.71,2.2-4.71,5.57s1.81,6.09,5,6.09C340,93,342.28,91.66,342.28,87.14Z" transform="translate(0 -16)"/><path class="cls-2" d="M366,90.48h-9.77l-2.36,7.14h-5.22l9.81-27.87h5.3l9.82,27.87h-5.22Zm-4.9-15.9s-.63,2.75-1.18,4.32l-2.48,7.46h7.31l-2.48-7.46c-.51-1.57-1.1-4.32-1.1-4.32Z" transform="translate(0 -16)"/><path class="cls-2" d="M375.12,77.6h4.55v1.45c0,.75-.07,1.38-.07,1.38h.07a7.17,7.17,0,0,1,6.44-3.3c5.42,0,8.88,4.28,8.88,10.48,0,6.36-3.89,10.48-9.15,10.48a6.9,6.9,0,0,1-5.73-2.74H380a16.76,16.76,0,0,1,.08,1.72v8.41h-5Zm9.82,16.29c2.74,0,5-2.23,5-6.2,0-3.81-2-6.28-5-6.28-2.59,0-5,1.88-5,6.32C380,90.83,381.64,93.89,384.94,93.89Z" transform="translate(0 -16)"/><path class="cls-2" d="M397.74,77.6h4.56v1.45a12.26,12.26,0,0,1-.08,1.38h.08a7.15,7.15,0,0,1,6.44-3.3c5.41,0,8.87,4.28,8.87,10.48,0,6.36-3.89,10.48-9.15,10.48a6.92,6.92,0,0,1-5.73-2.74h-.08a16.76,16.76,0,0,1,.08,1.72v8.41h-5Zm9.82,16.29c2.75,0,5-2.23,5-6.2,0-3.81-2-6.28-5-6.28-2.59,0-5,1.88-5,6.32C402.57,90.83,404.26,93.89,407.56,93.89Z" transform="translate(0 -16)"/><path class="cls-2" d="M47.12,135.59a11.5,11.5,0,0,1,.84-4.32.77.77,0,0,0-.55-1,51.65,51.65,0,0,1-25.24-14.19.78.78,0,0,0-1.31.37,11.65,11.65,0,0,1-2.68,5,.79.79,0,0,0,0,1.11,58.94,58.94,0,0,0,28,15,.78.78,0,0,0,.94-.84A10.32,10.32,0,0,1,47.12,135.59Z" transform="translate(0 -16)"/><circle class="cls-2" cx="58.82" cy="135.59" r="8.68" transform="translate(-88.95 122.31) rotate(-67.61)"/><path class="cls-2" d="M96.71,43.06a11.68,11.68,0,0,1,2.84-5,.74.74,0,0,0,0-1A59,59,0,0,0,71.47,22.2a.74.74,0,0,0-.87.83,11.24,11.24,0,0,1,.13,1.65,11.57,11.57,0,0,1-.7,4,.71.71,0,0,0,.53.91A51.65,51.65,0,0,1,95.5,43.38.72.72,0,0,0,96.71,43.06Z" transform="translate(0 -16)"/><circle class="cls-2" cx="59.03" cy="24.68" r="8.68" transform="translate(-3.2 -6.18) rotate(-9.26)"/><circle class="cls-2" cx="107.97" cy="46.17" r="8.68" transform="translate(24.15 112.41) rotate(-67.61)"/><path class="cls-2" d="M106.41,100.48a1,1,0,0,0,.86,1.34h.59a11.61,11.61,0,0,1,4.6,1,.92.92,0,0,0,1.2-.5,59,59,0,0,0,0-44.8.91.91,0,0,0-1.19-.5,10.84,10.84,0,0,1-3.27.77,28.85,28.85,0,0,1-2.94-.06c-.17,0-.47-.11-.51.15a.47.47,0,0,0,.08.3,17.91,17.91,0,0,1,.88,1.95c.39,1,.77,2,1.12,2.94a47.33,47.33,0,0,1,1.75,6,51.63,51.63,0,0,1-3.13,31.42Z" transform="translate(0 -16)"/><path class="cls-2" d="M9.54,101.82a10.55,10.55,0,0,1,1.79.15.58.58,0,0,0,.62-.82A51.59,51.59,0,0,1,12,58.54a.58.58,0,0,0-.62-.81,11.14,11.14,0,0,1-1.74.14A11.64,11.64,0,0,1,5.28,57a.59.59,0,0,0-.77.31,59,59,0,0,0-.08,45,.59.59,0,0,0,.78.31A11.76,11.76,0,0,1,9.54,101.82Z" transform="translate(0 -16)"/><circle class="cls-2" cx="9.54" cy="113.52" r="8.68" transform="translate(-77.48 23.99) rotate(-45)"/><path class="cls-1" d="M47.92,116.77c0-4-.1-25.12-.18-33.1A.66.66,0,0,1,49,83.36c4.1,7.83,16.12,30.61,17.75,33.72a.66.66,0,0,0,.59.35h38.8a.66.66,0,0,0,.67-.66v-5.51a.67.67,0,0,0-.67-.67H71.31a.66.66,0,0,1-.59-.35l-26-49.51a.67.67,0,0,0-.59-.36H41.75a.67.67,0,0,0-.67.67v48.89a.67.67,0,0,1-.66.66H34.35a.67.67,0,0,1-.67-.66V61a.67.67,0,0,0-.66-.67h-5.5a.67.67,0,0,0-.67.67v55.72a.67.67,0,0,0,.67.67H47.25A.66.66,0,0,0,47.92,116.77Z" transform="translate(0 -16)"/><path class="cls-2" d="M97.3,120.05H92.07a1.68,1.68,0,0,0-1,.37,51.57,51.57,0,0,1-19.79,9.68A1.71,1.71,0,0,0,70,132.26a11.42,11.42,0,0,1,.5,3.33v0a1.74,1.74,0,0,0,2.12,1.74,59,59,0,0,0,26.19-13.9,1.69,1.69,0,0,0,.15-2.34l-.35-.43A1.67,1.67,0,0,0,97.3,120.05Z" transform="translate(0 -16)"/><path class="cls-1" d="M69.42,43.24c0,4.07.1,24.87.17,32.93a.69.69,0,0,1-1.31.33c-4.15-7.93-16-30.42-17.68-33.59a.72.72,0,0,0-.62-.37H11.23a.7.7,0,0,0-.7.7v5.44a.7.7,0,0,0,.7.7H46a.7.7,0,0,1,.62.37l26,49.48a.7.7,0,0,0,.62.37h2.28a.7.7,0,0,0,.7-.7V50.07a.7.7,0,0,1,.7-.7h6a.7.7,0,0,1,.7.7V98.9a.7.7,0,0,0,.7.7h5.43a.7.7,0,0,0,.7-.7V43.24a.7.7,0,0,0-.7-.7H70.11A.69.69,0,0,0,69.42,43.24Z" transform="translate(0 -16)"/><path class="cls-2" d="M21,39.93h5.83a1.1,1.1,0,0,0,.72-.26,51.56,51.56,0,0,1,19.53-9.8,2,2,0,0,0,1.44-2.45,11.81,11.81,0,0,1-.32-2.74v0a2,2,0,0,0-2.51-2A59,59,0,0,0,20.09,36.38a2,2,0,0,0-.27,2.72l.22.3A1.19,1.19,0,0,0,21,39.93Z" transform="translate(0 -16)"/><circle class="cls-2" cx="9.66" cy="46.17" r="8.68" transform="translate(-37.32 26.04) rotate(-73.15)"/><circle class="cls-2" cx="107.86" cy="97.52" r="8.68"/></svg>