<?xml version="1.0" encoding="utf-8"?>
<!-- Generator: Adobe Illustrator 17.0.0, SVG Export Plug-In . SVG Version: 6.00 Build 0)  -->
<!DOCTYPE svg PUBLIC "-//W3C//DTD SVG 1.1//EN" "http://www.w3.org/Graphics/SVG/1.1/DTD/svg11.dtd">
<svg version="1.1" id="Capa_1" xmlns="http://www.w3.org/2000/svg" xmlns:xlink="http://www.w3.org/1999/xlink" x="0px" y="0px"
	 width="418px" height="160px" viewBox="0 0 418 160" enable-background="new 0 0 418 160" xml:space="preserve">
<path id="XMLID_59_" fill="#004F9F" d="M52.402,140.479c0-1.601,0.317-3.127,0.881-4.528c0.185-0.46-0.096-0.965-0.579-1.077
	c-10.217-2.36-19.335-7.62-26.441-14.864c-0.454-0.463-1.218-0.25-1.378,0.379c-0.503,1.965-1.481,3.741-2.807,5.197
	c-0.305,0.335-0.311,0.849,0.016,1.163c8.034,7.709,18.136,13.277,29.381,15.774c0.542,0.12,1.04-0.332,0.985-0.885
	C52.422,141.257,52.402,140.871,52.402,140.479z"/>
<circle id="XMLID_58_" fill="#004F9F" cx="64.657" cy="140.479" r="9.098"/>
<circle id="XMLID_57_" fill="#FFFFFF" cx="13.155" cy="46.789" r="9.098"/>
<path id="XMLID_56_" fill="#004F9F" d="M104.36,43.526c0.549-1.984,1.583-3.764,2.971-5.209c0.3-0.313,0.31-0.808-0.005-1.106
	c-8.067-7.625-18.176-13.108-29.409-15.532c-0.521-0.112-0.989,0.34-0.91,0.867c0.084,0.565,0.13,1.142,0.13,1.73
	c0,1.456-0.259,2.85-0.728,4.146c-0.15,0.413,0.119,0.855,0.547,0.953c10.064,2.306,19.066,7.429,26.135,14.487
	C103.507,44.281,104.202,44.095,104.36,43.526z"/>
<circle id="XMLID_55_" fill="#004F9F" cx="64.88" cy="24.277" r="9.098"/>
<circle id="XMLID_54_" fill="#004F9F" cx="116.158" cy="46.789" r="9.098"/>
<path id="XMLID_53_" fill="#004F9F" d="M114.517,103.696c-0.289,0.662,0.183,1.403,0.905,1.402l0.612-0.001
	c1.712,0,3.34,0.357,4.821,0.995c0.487,0.21,1.056-0.03,1.257-0.52c2.973-7.232,4.618-15.143,4.618-23.434
	c0-8.321-1.659-16.259-4.652-23.511c-0.201-0.486-0.762-0.724-1.248-0.522c-1.091,0.455-2.254,0.709-3.43,0.808
	c-1.027,0.086-2.052-0.041-3.079-0.068c-0.179-0.005-0.491-0.11-0.536,0.157c-0.019,0.111,0.03,0.222,0.085,0.321
	c0.359,0.645,0.645,1.355,0.922,2.039c0.411,1.019,0.806,2.046,1.175,3.081c0.738,2.072,1.373,4.183,1.834,6.334
	c0.801,3.731,1.201,7.546,1.201,11.362C119.004,89.798,117.4,97.087,114.517,103.696z"/>
<circle id="XMLID_52_" fill="#FFFFFF" cx="116.035" cy="117.352" r="9.098"/>
<path id="XMLID_51_" fill="#004F9F" d="M13.021,105.098c0.64,0,1.267,0.055,1.88,0.154c0.485,0.079,0.853-0.405,0.65-0.853
	c-3.078-6.793-4.794-14.33-4.794-22.26c0-7.981,1.746-15.559,4.862-22.385c0.204-0.447-0.162-0.931-0.647-0.855
	c-0.592,0.093-1.198,0.144-1.817,0.144c-1.625,0-3.172-0.327-4.591-0.906c-0.317-0.129-0.681,0.008-0.813,0.324
	C4.714,65.758,3.03,73.754,3.03,82.139c0,8.32,1.652,16.261,4.644,23.514c0.131,0.317,0.495,0.456,0.813,0.328
	C9.891,105.416,11.418,105.098,13.021,105.098z"/>
<circle id="XMLID_50_" fill="#004F9F" cx="13.022" cy="117.353" r="9.098"/>
<path id="XMLID_49_" fill="#EF7918" d="M53.235,120.758c-0.017-4.2-0.106-26.312-0.188-34.677c-0.007-0.733,0.973-0.979,1.312-0.329
	c4.295,8.213,16.884,32.079,18.599,35.332c0.121,0.229,0.356,0.369,0.615,0.369l40.656,0.015c0.385,0,0.698-0.312,0.698-0.698
	v-5.774c0-0.385-0.312-0.698-0.698-0.698H77.744c-0.259,0-0.497-0.144-0.617-0.373L49.832,62.053
	c-0.121-0.229-0.358-0.373-0.617-0.373h-2.443c-0.385,0-0.698,0.312-0.698,0.698l0.009,51.222c0,0.385-0.312,0.698-0.698,0.698
	h-6.37c-0.385,0-0.698-0.312-0.698-0.698V62.37c0-0.385-0.312-0.698-0.698-0.698h-5.758c-0.385,0-0.698,0.312-0.698,0.698v58.385
	c0,0.385,0.312,0.698,0.698,0.698h20.674C52.924,121.452,53.236,121.144,53.235,120.758z"/>
<g id="XMLID_47_">
	<path id="XMLID_48_" fill="#004F9F" d="M104.979,124.195l-5.482-0.002c-0.403,0-0.791,0.138-1.106,0.388
		c-6.014,4.76-13.054,8.276-20.734,10.146c-0.993,0.242-1.558,1.28-1.263,2.258c0.335,1.107,0.518,2.279,0.518,3.494
		c0,0.008,0,0.016,0,0.024c-0.002,1.194,1.07,2.09,2.231,1.815c10.403-2.468,19.798-7.569,27.439-14.56
		c0.7-0.64,0.77-1.734,0.153-2.455c-0.126-0.147-0.248-0.297-0.367-0.45C106.037,124.428,105.517,124.196,104.979,124.195z"/>
</g>
<circle id="XMLID_46_" fill="#004F9F" cx="116.035" cy="117.352" r="9.098"/>
<path id="XMLID_45_" fill="#EF7918" d="M75.759,43.72c0.017,4.264,0.106,26.055,0.186,34.501c0.007,0.768-1.019,1.028-1.375,0.347
	c-4.346-8.308-16.778-31.877-18.525-35.189c-0.127-0.24-0.375-0.389-0.646-0.389l-40.602-0.015c-0.404,0-0.732,0.327-0.732,0.731
	v5.706c0,0.404,0.327,0.731,0.731,0.731h36.433c0.272,0,0.521,0.15,0.647,0.391l27.275,51.836c0.126,0.24,0.376,0.391,0.647,0.391
	h2.389c0.404,0,0.731-0.328,0.731-0.731L82.91,50.875c0-0.404,0.327-0.731,0.731-0.731h6.302c0.404,0,0.731,0.327,0.731,0.731
	v51.164c0,0.404,0.327,0.731,0.731,0.731h5.691c0.404,0,0.731-0.327,0.731-0.731V43.721c0-0.404-0.327-0.731-0.731-0.731H76.49
	C76.085,42.99,75.757,43.315,75.759,43.72z"/>
<g id="XMLID_43_">
	<path id="XMLID_44_" fill="#004F9F" d="M25.044,40.247l6.11,0.002c0.276,0,0.542-0.095,0.757-0.268
		c5.925-4.773,12.87-8.328,20.456-10.272c1.127-0.289,1.786-1.438,1.512-2.569c-0.223-0.918-0.342-1.877-0.342-2.863
		c0-0.01,0-0.019,0-0.029c0.004-1.405-1.264-2.476-2.627-2.137c-10.162,2.521-19.335,7.567-26.827,14.423
		c-0.812,0.743-0.937,1.965-0.284,2.85c0.077,0.104,0.153,0.21,0.227,0.317C24.26,40.037,24.634,40.247,25.044,40.247z"/>
</g>
<circle id="XMLID_41_" fill="#004F9F" cx="13.155" cy="46.789" r="9.098"/>
<g>
	<path fill="#EF7918" d="M136.147,73.213h4.993l9.049,15.894V73.213h4.438v22.795h-4.762l-9.28-16.174v16.174h-4.438V73.213z"/>
	<path fill="#EF7918" d="M175.952,77.249h-12.062v4.841h11.072v3.959h-11.072v5.861h12.619v4.098h-17.274V73.213h16.717V77.249z"/>
	<path fill="#EF7918" d="M196.784,73.213v4.036h-6.82v18.759h-4.794V77.249h-6.851v-4.036H196.784z"/>
	<path fill="#EF7918" d="M202.667,73.213l3.01,13.054l0.655,3.633l0.657-3.559l2.575-13.128h5.026l2.709,13.052l0.694,3.635
		l0.703-3.493l3.039-13.193h4.85l-6.413,22.795h-4.561l-2.752-13.33l-0.804-4.408l-0.804,4.408l-2.752,13.33h-4.424l-6.464-22.795
		H202.667z"/>
	<path fill="#EF7918" d="M247.012,93.981c-1.721,1.774-4.211,2.66-7.469,2.66c-3.258,0-5.748-0.886-7.47-2.66
		c-2.309-2.175-3.463-5.309-3.463-9.403c0-4.175,1.155-7.309,3.463-9.402c1.722-1.774,4.212-2.66,7.47-2.66
		c3.258,0,5.748,0.886,7.469,2.66c2.3,2.093,3.449,5.227,3.449,9.402C250.461,88.672,249.311,91.806,247.012,93.981z
		 M244.035,90.518c1.108-1.392,1.662-3.371,1.662-5.939c0-2.556-0.554-4.533-1.662-5.93c-1.109-1.397-2.606-2.096-4.493-2.096
		c-1.887,0-3.393,0.696-4.516,2.088c-1.123,1.392-1.686,3.371-1.686,5.938c0,2.568,0.562,4.547,1.686,5.939
		c1.123,1.392,2.629,2.087,4.516,2.087C241.429,92.605,242.926,91.91,244.035,90.518z"/>
	<path fill="#EF7918" d="M268.703,73.8c0.839,0.361,1.55,0.892,2.133,1.593c0.482,0.577,0.865,1.217,1.146,1.917
		c0.282,0.702,0.422,1.5,0.422,2.398c0,1.082-0.272,2.147-0.82,3.193c-0.546,1.046-1.449,1.786-2.706,2.219
		c1.051,0.422,1.796,1.023,2.235,1.801c0.438,0.779,0.656,1.967,0.656,3.565v1.531c0,1.041,0.043,1.747,0.126,2.119
		c0.127,0.588,0.419,1.02,0.88,1.299v0.572h-5.259c-0.144-0.505-0.247-0.913-0.309-1.222c-0.124-0.639-0.19-1.294-0.201-1.964
		l-0.031-2.118c-0.019-1.454-0.27-2.423-0.754-2.907c-0.482-0.484-1.387-0.727-2.713-0.727h-4.653v8.939h-4.655V73.213h10.903
		C266.664,73.244,267.863,73.44,268.703,73.8z M258.858,77.172v6.124h5.127c1.018,0,1.781-0.124,2.29-0.371
		c0.902-0.433,1.351-1.289,1.351-2.567c0-1.382-0.436-2.31-1.307-2.784c-0.49-0.268-1.224-0.402-2.203-0.402H258.858z"/>
	<path fill="#EF7918" d="M277.044,73.213h4.685v9.392l8.807-9.392h6.155l-9.354,9.375l9.833,13.419h-6.124l-7.023-9.95l-2.294,2.326
		v7.624h-4.685V73.213z"/>
	<path fill="#EF7918" d="M304.184,96.007h-4.732V73.213h4.732V96.007z"/>
	<path fill="#EF7918" d="M308.561,73.213h4.993l9.049,15.894V73.213h4.438v22.795h-4.762l-9.28-16.174v16.174h-4.438V73.213z"/>
	<path fill="#EF7918" d="M346.835,80.326c-0.361-1.556-1.242-2.644-2.644-3.263c-0.784-0.34-1.655-0.511-2.614-0.511
		c-1.836,0-3.343,0.693-4.524,2.077c-1.18,1.384-1.771,3.464-1.771,6.243c0,2.799,0.639,4.779,1.918,5.942
		c1.278,1.163,2.732,1.744,4.361,1.744c1.599,0,2.907-0.459,3.928-1.376c1.02-0.917,1.649-2.118,1.886-3.604h-5.273v-3.804h9.495
		v12.232h-3.154l-0.48-2.846c-0.918,1.078-1.742,1.838-2.474,2.278c-1.258,0.77-2.804,1.155-4.64,1.155
		c-3.021,0-5.496-1.045-7.423-3.137c-2.01-2.102-3.015-4.976-3.015-8.624c0-3.688,1.015-6.645,3.046-8.871
		c2.031-2.226,4.717-3.338,8.057-3.338c2.896,0,5.224,0.734,6.982,2.203c1.758,1.47,2.766,3.302,3.024,5.498H346.835z"/>
	<path fill="#004F9F" d="M362.663,73.213h5.389l8.065,22.795h-5.164l-1.504-4.686h-8.395l-1.545,4.686h-4.982L362.663,73.213z
		 M362.349,87.394h5.838l-2.879-8.969L362.349,87.394z"/>
	<path fill="#004F9F" d="M392.837,80.96c1.375,1.454,2.062,3.588,2.062,6.402c0,2.969-0.673,5.232-2.016,6.789
		c-1.344,1.557-3.074,2.335-5.191,2.335c-1.349,0-2.47-0.335-3.362-1.005c-0.488-0.371-0.965-0.913-1.432-1.624v8.784h-4.361V79.151
		h4.222v2.49c0.477-0.732,0.986-1.309,1.525-1.732c0.986-0.753,2.159-1.128,3.518-1.128C389.783,78.78,391.462,79.506,392.837,80.96
		z M389.454,84.131c-0.6-1-1.57-1.5-2.914-1.5c-1.614,0-2.723,0.758-3.328,2.273c-0.312,0.804-0.468,1.824-0.468,3.062
		c0,1.958,0.525,3.335,1.576,4.129c0.625,0.464,1.365,0.696,2.218,0.696c1.24,0,2.185-0.474,2.836-1.423
		c0.651-0.948,0.977-2.211,0.977-3.789C390.352,86.28,390.053,85.131,389.454,84.131z"/>
	<path fill="#004F9F" d="M412.183,80.96c1.375,1.454,2.062,3.588,2.062,6.402c0,2.969-0.673,5.232-2.016,6.789
		c-1.344,1.557-3.074,2.335-5.191,2.335c-1.349,0-2.47-0.335-3.362-1.005c-0.488-0.371-0.965-0.913-1.432-1.624v8.784h-4.361V79.151
		h4.222v2.49c0.477-0.732,0.986-1.309,1.525-1.732c0.986-0.753,2.159-1.128,3.518-1.128C409.13,78.78,410.808,79.506,412.183,80.96z
		 M408.801,84.131c-0.6-1-1.57-1.5-2.914-1.5c-1.614,0-2.723,0.758-3.328,2.273c-0.312,0.804-0.468,1.824-0.468,3.062
		c0,1.958,0.525,3.335,1.576,4.129c0.625,0.464,1.365,0.696,2.219,0.696c1.24,0,2.185-0.474,2.836-1.423
		c0.651-0.948,0.977-2.211,0.977-3.789C409.698,86.28,409.399,85.131,408.801,84.131z"/>
</g>
</svg>
