<svg id="Capa_1" data-name="Capa 1" xmlns="http://www.w3.org/2000/svg" viewBox="0 0 411.22 134.4"><defs><style>.cls-1{fill:#004f9f;}.cls-2{fill:#fff;}.cls-3{fill:#ef7918;}</style></defs><title>nwapp_logo</title><path id="_Trazado_" data-name="&lt;Trazado&gt;" class="cls-1" d="M52.4,140.48a12.18,12.18,0,0,1,.88-4.53.8.8,0,0,0-.58-1.08A54.19,54.19,0,0,1,26.26,120a.81.81,0,0,0-1.37.38,12.43,12.43,0,0,1-2.81,5.2.83.83,0,0,0,0,1.16,61.76,61.76,0,0,0,29.39,15.77.81.81,0,0,0,1-.88A11.12,11.12,0,0,1,52.4,140.48Z" transform="translate(-3.03 -15.18)"/><circle id="_Trazado_2" data-name="&lt;Trazado&gt;" class="cls-1" cx="61.63" cy="125.3" r="9.1"/><circle id="_Trazado_3" data-name="&lt;Trazado&gt;" class="cls-2" cx="10.12" cy="31.61" r="9.1"/><path id="_Trazado_4" data-name="&lt;Trazado&gt;" class="cls-1" d="M104.36,43.53a12.15,12.15,0,0,1,3-5.21.79.79,0,0,0,0-1.11A61.84,61.84,0,0,0,77.92,21.68a.77.77,0,0,0-.91.87,12.25,12.25,0,0,1,.13,1.73,12.1,12.1,0,0,1-.73,4.14.74.74,0,0,0,.55,1,54.05,54.05,0,0,1,26.13,14.48A.75.75,0,0,0,104.36,43.53Z" transform="translate(-3.03 -15.18)"/><circle id="_Trazado_5" data-name="&lt;Trazado&gt;" class="cls-1" cx="61.85" cy="9.1" r="9.1"/><circle id="_Trazado_6" data-name="&lt;Trazado&gt;" class="cls-1" cx="113.13" cy="31.61" r="9.1"/><path id="_Trazado_7" data-name="&lt;Trazado&gt;" class="cls-1" d="M114.52,103.7a1,1,0,0,0,.9,1.4H116a12.08,12.08,0,0,1,4.82,1,1,1,0,0,0,1.26-.52,61.74,61.74,0,0,0,0-46.94,1,1,0,0,0-1.25-.52,11.51,11.51,0,0,1-3.43.8,28.78,28.78,0,0,1-3.08-.06c-.18,0-.49-.11-.54.15a.54.54,0,0,0,.09.32,19.6,19.6,0,0,1,.92,2c.41,1,.81,2,1.18,3.08a52.11,52.11,0,0,1,1.83,6.34,54.2,54.2,0,0,1-3.28,32.92Z" transform="translate(-3.03 -15.18)"/><circle id="_Trazado_8" data-name="&lt;Trazado&gt;" class="cls-2" cx="113.01" cy="102.17" r="9.1"/><path id="_Trazado_9" data-name="&lt;Trazado&gt;" class="cls-1" d="M13,105.1a11.63,11.63,0,0,1,1.88.15.6.6,0,0,0,.65-.85,54.06,54.06,0,0,1,.07-44.65A.6.6,0,0,0,15,58.9a12.08,12.08,0,0,1-6.41-.76.62.62,0,0,0-.81.32,61.82,61.82,0,0,0-.08,47.19.62.62,0,0,0,.82.33A12.18,12.18,0,0,1,13,105.1Z" transform="translate(-3.03 -15.18)"/><circle id="_Trazado_10" data-name="&lt;Trazado&gt;" class="cls-1" cx="9.99" cy="102.17" r="9.1"/><path id="_Trazado_11" data-name="&lt;Trazado&gt;" class="cls-3" d="M53.24,120.76c0-4.2-.11-26.31-.19-34.68a.69.69,0,0,1,1.31-.33C58.65,94,71.24,117.83,73,121.08a.68.68,0,0,0,.61.37l40.66,0a.7.7,0,0,0,.7-.7V115a.7.7,0,0,0-.7-.7H77.74a.71.71,0,0,1-.61-.37L49.83,62.05a.69.69,0,0,0-.61-.37H46.77a.7.7,0,0,0-.7.7V113.6a.7.7,0,0,1-.7.7H39a.69.69,0,0,1-.69-.7V62.37a.71.71,0,0,0-.7-.7H31.86a.7.7,0,0,0-.7.7v58.38a.7.7,0,0,0,.7.7H52.53A.7.7,0,0,0,53.24,120.76Z" transform="translate(-3.03 -15.18)"/><g id="_Grupo_" data-name="&lt;Grupo&gt;"><path id="_Trazado_12" data-name="&lt;Trazado&gt;" class="cls-1" d="M105,124.19H99.5a1.79,1.79,0,0,0-1.11.39,54,54,0,0,1-20.73,10.15A1.79,1.79,0,0,0,76.39,137a11.79,11.79,0,0,1,.52,3.49v0a1.83,1.83,0,0,0,2.23,1.82,61.78,61.78,0,0,0,27.44-14.56,1.78,1.78,0,0,0,.15-2.46q-.18-.21-.36-.45A1.8,1.8,0,0,0,105,124.19Z" transform="translate(-3.03 -15.18)"/></g><circle id="_Trazado_13" data-name="&lt;Trazado&gt;" class="cls-1" cx="113.01" cy="102.17" r="9.1"/><path id="_Trazado_14" data-name="&lt;Trazado&gt;" class="cls-3" d="M75.76,43.72c0,4.26.11,26.06.18,34.5a.73.73,0,0,1-1.37.35C70.22,70.26,57.79,46.69,56,43.38A.71.71,0,0,0,55.4,43H14.8a.73.73,0,0,0-.74.73v5.7a.73.73,0,0,0,.74.73H51.23a.74.74,0,0,1,.65.39l27.27,51.84a.74.74,0,0,0,.65.39h2.39a.73.73,0,0,0,.73-.73V50.88a.74.74,0,0,1,.73-.74h6.3a.73.73,0,0,1,.73.74V102a.74.74,0,0,0,.74.73H97.1a.73.73,0,0,0,.73-.73V43.72A.73.73,0,0,0,97.1,43H76.49A.72.72,0,0,0,75.76,43.72Z" transform="translate(-3.03 -15.18)"/><g id="_Grupo_2" data-name="&lt;Grupo&gt;"><path id="_Trazado_15" data-name="&lt;Trazado&gt;" class="cls-1" d="M25,40.25h6.11a1.22,1.22,0,0,0,.76-.27A54,54,0,0,1,52.37,29.71a2.13,2.13,0,0,0,1.51-2.57,12.3,12.3,0,0,1-.34-2.86v0a2.14,2.14,0,0,0-2.63-2.14A61.91,61.91,0,0,0,24.08,36.53a2.14,2.14,0,0,0-.28,2.85l.23.32A1.22,1.22,0,0,0,25,40.25Z" transform="translate(-3.03 -15.18)"/></g><circle id="_Trazado_16" data-name="&lt;Trazado&gt;" class="cls-1" cx="10.12" cy="31.61" r="9.1"/><path class="cls-3" d="M136.15,73.21h5l9.05,15.9V73.21h4.44V96h-4.76l-9.28-16.18V96h-4.44Z" transform="translate(-3.03 -15.18)"/><path class="cls-3" d="M176,77.25H163.89v4.84H175v4H163.89v5.86h12.62V96H159.24V73.21H176Z" transform="translate(-3.03 -15.18)"/><path class="cls-3" d="M196.78,73.21v4H190V96h-4.79V77.25h-6.85v-4Z" transform="translate(-3.03 -15.18)"/><path class="cls-3" d="M202.67,73.21l3,13.06.65,3.63.66-3.56,2.57-13.13h5l2.71,13.06L218,89.9l.71-3.49,3-13.2h4.85L220.17,96h-4.56l-2.75-13.33-.8-4.41-.81,4.41L208.5,96h-4.42l-6.47-22.8Z" transform="translate(-3.03 -15.18)"/><path class="cls-3" d="M247,94c-1.72,1.78-4.21,2.66-7.47,2.66s-5.75-.88-7.47-2.66q-3.47-3.26-3.46-9.4t3.46-9.4c1.72-1.78,4.22-2.66,7.47-2.66s5.75.88,7.47,2.66q3.45,3.13,3.45,9.4T247,94Zm-3-3.46a9.38,9.38,0,0,0,1.66-5.94A9.38,9.38,0,0,0,244,78.65a5.44,5.44,0,0,0-4.5-2.1A5.51,5.51,0,0,0,235,78.64a9.2,9.2,0,0,0-1.69,5.94A9.2,9.2,0,0,0,235,90.52a5.48,5.48,0,0,0,4.51,2.08A5.42,5.42,0,0,0,244,90.52Z" transform="translate(-3.03 -15.18)"/><path class="cls-3" d="M268.7,73.8a5.69,5.69,0,0,1,2.14,1.59A7.17,7.17,0,0,1,272,77.31a6.42,6.42,0,0,1,.42,2.4,6.76,6.76,0,0,1-.82,3.19,4.55,4.55,0,0,1-2.7,2.22,4.24,4.24,0,0,1,2.23,1.8,7.5,7.5,0,0,1,.66,3.57V92a12.17,12.17,0,0,0,.12,2.12,1.94,1.94,0,0,0,.88,1.3V96h-5.25c-.15-.51-.25-.92-.31-1.22a10.7,10.7,0,0,1-.2-2l0-2.12a4.24,4.24,0,0,0-.76-2.9,3.81,3.81,0,0,0-2.71-.73h-4.66V96H254.2V73.21h10.9A9.94,9.94,0,0,1,268.7,73.8Zm-9.84,3.37V83.3H264a5.42,5.42,0,0,0,2.29-.38,2.55,2.55,0,0,0,1.35-2.56,2.9,2.9,0,0,0-1.31-2.79,4.82,4.82,0,0,0-2.2-.4Z" transform="translate(-3.03 -15.18)"/><path class="cls-3" d="M277,73.21h4.69V82.6l8.81-9.39h6.15l-9.35,9.38L297.17,96h-6.12l-7-10-2.29,2.32V96H277Z" transform="translate(-3.03 -15.18)"/><path class="cls-3" d="M304.18,96h-4.73V73.21h4.73Z" transform="translate(-3.03 -15.18)"/><path class="cls-3" d="M308.56,73.21h5l9.05,15.9V73.21H327V96h-4.76L313,79.83V96h-4.44V73.21Z" transform="translate(-3.03 -15.18)"/><path class="cls-3" d="M346.83,80.33a4.47,4.47,0,0,0-2.64-3.27,6.47,6.47,0,0,0-2.61-.51,5.67,5.67,0,0,0-4.53,2.08q-1.77,2.07-1.77,6.24t1.92,5.94a6.28,6.28,0,0,0,4.36,1.75,5.64,5.64,0,0,0,3.93-1.38,5.91,5.91,0,0,0,1.88-3.6H342.1V83.77h9.5V96h-3.16L348,93.16a10.92,10.92,0,0,1-2.47,2.28,8.75,8.75,0,0,1-4.64,1.15,9.62,9.62,0,0,1-7.42-3.13c-2-2.11-3-5-3-8.63a12.66,12.66,0,0,1,3-8.87,10.39,10.39,0,0,1,8.05-3.34,10.55,10.55,0,0,1,7,2.21,8.23,8.23,0,0,1,3,5.49h-4.69Z" transform="translate(-3.03 -15.18)"/><path class="cls-1" d="M362.66,73.21h5.39L376.12,96H371l-1.5-4.69h-8.4L359.51,96h-5Zm-.31,14.18h5.84l-2.88-9Z" transform="translate(-3.03 -15.18)"/><path class="cls-1" d="M392.84,81c1.37,1.45,2.06,3.59,2.06,6.4q0,4.45-2,6.79a6.53,6.53,0,0,1-5.19,2.34,5.43,5.43,0,0,1-3.36-1,6.49,6.49,0,0,1-1.43-1.62v8.78h-4.36V79.15h4.22v2.49a7.31,7.31,0,0,1,1.52-1.73,5.66,5.66,0,0,1,3.52-1.13A6.7,6.7,0,0,1,392.84,81Zm-3.39,3.17a3.13,3.13,0,0,0-2.91-1.5,3.33,3.33,0,0,0-3.33,2.27,8.65,8.65,0,0,0-.47,3.07c0,2,.53,3.33,1.58,4.12a3.59,3.59,0,0,0,2.22.7,3.21,3.21,0,0,0,2.83-1.42,7.44,7.44,0,0,0,.08-7.24Z" transform="translate(-3.03 -15.18)"/><path class="cls-1" d="M412.18,81c1.38,1.45,2.07,3.59,2.07,6.4,0,3-.68,5.23-2,6.79A6.53,6.53,0,0,1,407,96.49a5.43,5.43,0,0,1-3.36-1,6.5,6.5,0,0,1-1.44-1.62v8.78h-4.36V79.15h4.23v2.49a6.9,6.9,0,0,1,1.52-1.73,5.66,5.66,0,0,1,3.52-1.13A6.66,6.66,0,0,1,412.18,81Zm-3.38,3.17a3.13,3.13,0,0,0-2.91-1.5,3.31,3.31,0,0,0-3.33,2.27,8.65,8.65,0,0,0-.47,3.07c0,2,.53,3.33,1.58,4.12a3.57,3.57,0,0,0,2.22.7,3.21,3.21,0,0,0,2.83-1.42,7.44,7.44,0,0,0,.08-7.24Z" transform="translate(-3.03 -15.18)"/></svg>