<?xml version="1.0" encoding="utf-8"?>
<!-- Generator: Adobe Illustrator 16.0.0, SVG Export Plug-In . SVG Version: 6.00 Build 0)  -->
<!DOCTYPE svg PUBLIC "-//W3C//DTD SVG 1.1//EN" "http://www.w3.org/Graphics/SVG/1.1/DTD/svg11.dtd">
<svg version="1.1" id="Capa_1" xmlns="http://www.w3.org/2000/svg" xmlns:xlink="http://www.w3.org/1999/xlink" x="0px" y="0px"
	 width="481.084px" height="479.584px" viewBox="0 0 481.084 479.584" enable-background="new 0 0 481.084 479.584"
	 xml:space="preserve">
<rect y="-1.418" fill="#282A43" width="481.084" height="481.688"/>
<g>
	<g>
		<g>
			<path fill="#FFFFFF" d="M224.94,123.258c60.527-6.208,114.95,35.348,125.81,94.162l19.555-0.07
				c-11.127-70.42-75.546-120.631-147.346-113.271c-65.294,6.701-114.943,58.812-120.828,121.774h19.378
				C127.334,172.688,169.584,128.934,224.94,123.258z"/>
			<path fill="#FFFFFF" d="M248.607,353.928c-35.184,3.623-68.268-8.896-91.964-31.547h-26.026
				c27.728,35.055,72.203,55.626,119.961,50.73c37.857-3.885,70.438-23.051,92.316-50.73h-25.989
				C298.919,339.608,275.276,351.185,248.607,353.928z"/>
			<path fill="#FFFFFF" d="M225.902,132.822c54.933-5.646,104.381,31.596,115.082,84.615l5.764-0.018
				c-10.798-56.445-63.178-96.224-121.405-90.255c-53.341,5.482-94.067,47.52-99.874,98.688h5.709
				C136.96,177.571,175.518,137.987,225.902,132.822z"/>
			<path fill="#FFFFFF" d="M247.622,344.362c-28.458,2.919-55.42-5.66-76.312-21.981h-8.866
				c22.645,20.078,53.279,30.969,85.749,27.637c24.286-2.493,45.946-12.574,62.898-27.637h-8.866
				C286.987,334.329,268.31,342.245,247.622,344.362z"/>
			<path fill="#FFFFFF" d="M222.082,95.631c76.752-7.881,145.56,46.176,156.798,121.701l26.974-0.063
				c-0.28-2.15-0.572-4.291-0.912-6.409l-9.682,1.592c-2.226-13.565-6.129-26.492-11.442-38.594l8.974-3.95
				c-8.672-19.697-20.867-37.388-36.265-52.572l-6.872,6.975c-9.582-9.449-20.344-17.676-31.971-24.462l4.95-8.471
				c-18.668-10.905-38.929-18.084-60.225-21.297l-1.471,9.688c-13.025-1.973-26.512-2.355-40.241-0.979l-0.985-9.756l-0.354,0.03
				c-21.53,2.216-42.125,8.363-61.176,18.257l4.504,8.707c-12.032,6.245-23.13,13.979-33.084,22.922l-6.549-7.307
				c-16.059,14.402-29.102,31.462-38.747,50.73l8.77,4.406c-5.978,11.927-10.514,24.66-13.371,37.952l-9.584-2.062
				c-1.646,7.624-2.753,15.373-3.331,23.184h26.821C99.522,158.579,152.424,102.781,222.082,95.631z"/>
			<path fill="#FFFFFF" d="M251.428,381.522c-53.065,5.436-102.349-18.735-131.407-59.142H88.304
				c7.775,13.768,17.42,26.366,28.821,37.596l6.872-6.986c9.594,9.45,20.352,17.652,32.001,24.439l-4.948,8.487
				c18.686,10.867,38.939,18.019,60.246,21.21l1.46-9.681c13.024,1.952,26.523,2.335,40.241,0.937l1.034,9.748l0.134-0.018
				c21.488-2.196,42.017-8.313,61.037-18.177l-4.524-8.695c12.064-6.244,23.168-13.966,33.127-22.881l6.544,7.309
				c13.974-12.508,25.661-27.046,34.829-43.288h-31.717C330.307,354.615,294.005,377.144,251.428,381.522z"/>
		</g>
		<g>
			<path fill="#FFFFFF" d="M132.928,308.639h-23.056l-5.492-31.602l-19.452,45.027c-3.538-9-9.997-24.024-19.367-45.027
				l-5.49,31.602H37.019l13.062-70.32h22.054l12.794,30.796l12.873-30.796h21.97L132.928,308.639z"/>
			<path fill="#FFFFFF" d="M216.393,274.246c0,11.419-4.16,20.614-12.515,27.649c-7.801,6.53-17.525,9.82-29.175,9.82
				c-11.59,0-21.338-3.308-29.26-9.912c-8.41-7.029-12.6-16.211-12.6-27.558c0-11.534,4.159-20.777,12.502-27.733
				c7.808-6.485,17.597-9.756,29.357-9.818v-0.087c11.826,0,21.61,3.271,29.357,9.824
				C212.292,253.391,216.393,262.657,216.393,274.246z M192.713,273.967c0-4.974-1.799-8.994-5.393-12.058
				c-3.369-2.876-7.595-4.317-12.703-4.317c-5.217,0-9.51,1.404-12.879,4.226c-3.599,3.004-5.412,7.061-5.412,12.149
				c0,4.993,1.843,9.013,5.497,12.07c3.424,2.833,7.693,4.243,12.794,4.243c4.975,0,9.243-1.488,12.788-4.463
				C190.938,282.844,192.713,278.897,192.713,273.967z"/>
			<path fill="#FFFFFF" d="M270.169,257.858h-15.396v51.601h-23.059v-51.601h-15.592V238.86h54.046V257.858z"/>
			<path fill="#FFFFFF" d="M339.962,309.187h-29.186l-14.314-20.17v20.17h-23.046v-70.243h29.893c7.697,0,14.046,1.774,19.081,5.32
				c5.643,4.078,8.478,9.813,8.478,17.201c0,9.602-4.865,16.169-14.583,19.719L339.962,309.187z M306.556,262.268
				c0-1.854-0.875-3.325-2.614-4.409c-1.436-0.899-3.199-1.356-5.218-1.356h-1.545c-0.121,0-0.243,0-0.353,0h-0.364v11.894
				c0.06,0,0.133,0.026,0.183,0.093h2.079c2.152,0,3.916-0.485,5.303-1.436C305.705,265.898,306.556,264.31,306.556,262.268z"/>
			<path fill="#FFFFFF" d="M365.708,309.187H342.76v-70.243h22.948V309.187z"/>
			<path fill="#FFFFFF" d="M442.981,238.943l-34.307,51.416h28.626v18.827h-68.346l34.405-51.413h-26.123v-18.83H442.981z"/>
		</g>
		<g>
			<path fill="#FFFFFF" d="M187.484,225.169h-25.806v-54.75h25.806v14.85h-12.647v5.277h11.844V205.4h-11.844v5.339h12.647V225.169z
				"/>
			<path fill="#FFFFFF" d="M236.629,225.169h-15.896l-8.622-15.337l-8.525,15.337h-15.943l16.807-29.34l-13.779-25.556h16.139
				l5.303,11.681l5.388-11.681H233.6l-13.717,25.556L236.629,225.169z"/>
			<path fill="#FFFFFF" d="M270.169,188.936c0,8.062-1.921,13.504-5.74,16.316c-2.761,2.022-7.564,2.938-14.446,2.752v17.165
				h-13.258v-54.896h18.912c4.207,0,7.638,1.624,10.336,4.855C268.758,178.556,270.169,183.16,270.169,188.936z M256.597,188.996
				c0-2.205-0.79-3.588-2.371-4.149c-0.548-0.181-2.02-0.308-4.439-0.354v9.434h2.724
				C255.234,193.927,256.597,192.287,256.597,188.996z"/>
			<path fill="#FFFFFF" d="M318.316,197.864c0,8.911-2.337,16.126-7.007,21.613c-4.365,5.11-9.813,7.665-16.344,7.665
				c-6.481,0-11.954-2.585-16.382-7.743c-4.706-5.489-7.064-12.669-7.064-21.535c0-9.002,2.334-16.248,7.017-21.675
				c4.379-5.065,9.85-7.619,16.43-7.665v-0.081c6.628,0,12.113,2.569,16.454,7.674C316.016,181.556,318.316,188.815,318.316,197.864
				z M305.06,197.647c0-3.885-1.009-7.034-3.027-9.424c-1.874-2.245-4.27-3.377-7.115-3.377c-2.918,0-5.326,1.112-7.199,3.308
				c-2.019,2.343-3.028,5.507-3.028,9.493c0,3.899,1.021,7.045,3.076,9.44c1.909,2.202,4.294,3.306,7.151,3.306
				c2.798,0,5.182-1.157,7.164-3.494C304.062,204.589,305.06,201.503,305.06,197.647z"/>
		</g>
	</g>
</g>
</svg>
