<svg xmlns="http://www.w3.org/2000/svg" viewBox="0 0 123.7 134.4"><defs><style>.cls-1{fill:#004f9f;}.cls-2{fill:#fff;}.cls-3{fill:#ef7918;}</style></defs><title>Recurso 1</title><g id="Capa_2" data-name="Capa 2"><g id="Capa_1-2" data-name="Capa 1"><path id="_Trazado_" data-name="&lt;Trazado&gt;" class="cls-1" d="M49.37,125.3a12.18,12.18,0,0,1,.88-4.53.79.79,0,0,0-.58-1.07,54.13,54.13,0,0,1-26.44-14.87.81.81,0,0,0-1.37.38,12.37,12.37,0,0,1-2.81,5.2.83.83,0,0,0,0,1.16,61.76,61.76,0,0,0,29.39,15.77.81.81,0,0,0,1-.88A11.12,11.12,0,0,1,49.37,125.3Z"/><circle id="_Trazado_2" data-name="&lt;Trazado&gt;" class="cls-1" cx="61.63" cy="125.3" r="9.1"/><circle id="_Trazado_3" data-name="&lt;Trazado&gt;" class="cls-2" cx="10.12" cy="31.61" r="9.1"/><path id="_Trazado_4" data-name="&lt;Trazado&gt;" class="cls-1" d="M101.33,28.35a12.15,12.15,0,0,1,3-5.21.79.79,0,0,0,0-1.11A61.84,61.84,0,0,0,74.89,6.5a.77.77,0,0,0-.91.87,12.25,12.25,0,0,1,.13,1.73,12.1,12.1,0,0,1-.73,4.14.74.74,0,0,0,.55,1,54.13,54.13,0,0,1,26.13,14.48A.75.75,0,0,0,101.33,28.35Z"/><circle id="_Trazado_5" data-name="&lt;Trazado&gt;" class="cls-1" cx="61.85" cy="9.1" r="9.1"/><circle id="_Trazado_6" data-name="&lt;Trazado&gt;" class="cls-1" cx="113.13" cy="31.61" r="9.1"/><path id="_Trazado_7" data-name="&lt;Trazado&gt;" class="cls-1" d="M111.49,88.52a1,1,0,0,0,.9,1.4H113a12.25,12.25,0,0,1,4.82,1,1,1,0,0,0,1.26-.52,61.74,61.74,0,0,0,0-46.94,1,1,0,0,0-1.25-.52,11.21,11.21,0,0,1-3.43.8,28.78,28.78,0,0,1-3.08-.06c-.18,0-.49-.11-.54.15a.52.52,0,0,0,.09.32,19.6,19.6,0,0,1,.92,2c.41,1,.81,2,1.18,3.08a52.11,52.11,0,0,1,1.83,6.34,54.2,54.2,0,0,1-3.28,32.92Z"/><circle id="_Trazado_8" data-name="&lt;Trazado&gt;" class="cls-2" cx="113.01" cy="102.17" r="9.1"/><path id="_Trazado_9" data-name="&lt;Trazado&gt;" class="cls-1" d="M10,89.92a11.63,11.63,0,0,1,1.88.15.6.6,0,0,0,.65-.85,54.06,54.06,0,0,1,.07-44.65.6.6,0,0,0-.65-.85A12.08,12.08,0,0,1,5.53,43a.62.62,0,0,0-.81.32,61.82,61.82,0,0,0-.08,47.19.62.62,0,0,0,.82.33A12.18,12.18,0,0,1,10,89.92Z"/><circle id="_Trazado_10" data-name="&lt;Trazado&gt;" class="cls-1" cx="9.99" cy="102.17" r="9.1"/><path id="_Trazado_11" data-name="&lt;Trazado&gt;" class="cls-3" d="M50.21,105.58c0-4.2-.11-26.31-.19-34.68a.69.69,0,0,1,1.31-.33c4.29,8.22,16.88,32.08,18.6,35.34a.69.69,0,0,0,.61.36l40.66,0a.7.7,0,0,0,.7-.7V99.82a.7.7,0,0,0-.7-.7H74.71a.69.69,0,0,1-.61-.37L46.8,46.87a.71.71,0,0,0-.61-.37H43.74a.7.7,0,0,0-.7.7V98.42a.7.7,0,0,1-.7.7H36a.69.69,0,0,1-.69-.7V47.19a.71.71,0,0,0-.7-.7H28.83a.7.7,0,0,0-.7.7v58.39a.69.69,0,0,0,.7.69H49.5A.7.7,0,0,0,50.21,105.58Z"/><g id="_Grupo_" data-name="&lt;Grupo&gt;"><path id="_Trazado_12" data-name="&lt;Trazado&gt;" class="cls-1" d="M102,109H96.47a1.79,1.79,0,0,0-1.11.39,54,54,0,0,1-20.73,10.15,1.79,1.79,0,0,0-1.27,2.26,11.84,11.84,0,0,1,.52,3.49v0a1.83,1.83,0,0,0,2.23,1.82,61.78,61.78,0,0,0,27.44-14.56,1.78,1.78,0,0,0,.15-2.46q-.18-.21-.36-.45A1.76,1.76,0,0,0,102,109Z"/></g><circle id="_Trazado_13" data-name="&lt;Trazado&gt;" class="cls-1" cx="113.01" cy="102.17" r="9.1"/><path id="_Trazado_14" data-name="&lt;Trazado&gt;" class="cls-3" d="M72.73,28.54c0,4.27.11,26.06.18,34.5a.73.73,0,0,1-1.37.35C67.19,55.08,54.76,31.51,53,28.2a.71.71,0,0,0-.64-.39H11.77a.73.73,0,0,0-.74.73v5.7a.73.73,0,0,0,.74.73H48.2a.74.74,0,0,1,.65.39L76.12,87.19a.74.74,0,0,0,.65.39h2.39a.73.73,0,0,0,.73-.73V35.7a.73.73,0,0,1,.73-.73h6.3a.72.72,0,0,1,.73.73V86.86a.74.74,0,0,0,.74.73h5.69a.73.73,0,0,0,.73-.73V28.54a.73.73,0,0,0-.73-.73H73.46A.73.73,0,0,0,72.73,28.54Z"/><g id="_Grupo_2" data-name="&lt;Grupo&gt;"><path id="_Trazado_15" data-name="&lt;Trazado&gt;" class="cls-1" d="M22,25.07h6.11a1.22,1.22,0,0,0,.76-.27A54,54,0,0,1,49.34,14.53,2.13,2.13,0,0,0,50.85,12a12.3,12.3,0,0,1-.34-2.86v0a2.14,2.14,0,0,0-2.63-2.14A61.91,61.91,0,0,0,21.05,21.35a2.14,2.14,0,0,0-.28,2.85l.23.32A1.22,1.22,0,0,0,22,25.07Z"/></g><circle id="_Trazado_16" data-name="&lt;Trazado&gt;" class="cls-1" cx="10.12" cy="31.61" r="9.1"/></g></g></svg>